<svg width="281" height="153" viewBox="0 0 281 153" fill="none" xmlns="http://www.w3.org/2000/svg">
<path d="M130.388 13.023C124.482 10.2424 118.544 16.0793 114.462 19.5697C108.867 24.3567 103.439 29.3362 98.1864 34.5003C93.4367 39.1717 88.8416 43.9983 84.3992 48.9598C84.7977 45.9326 85.0252 42.8819 85.1006 39.8168C85.1975 35.9517 85.1383 31.8532 83.2579 28.3622C81.431 24.9782 77.7945 23.3469 74.0636 24.3413C69.9823 25.4282 67.3218 29.0037 65.8618 32.7685C64.3646 36.6357 63.4817 40.7264 62.0649 44.6281C60.6363 48.5707 58.9697 52.4191 57.0822 56.162C53.3583 63.5404 48.7655 70.4653 43.4278 76.7826C38.0931 83.0936 32.0381 88.7777 25.3613 93.6533C23.669 94.8922 21.7166 95.9449 20.2146 97.4103C18.7373 98.8565 18.2459 100.82 18.6282 102.82C19.0329 104.929 20.1358 106.8 21.1385 108.67C22.3292 110.894 23.5399 113.1 24.7739 115.298C29.8136 124.278 35.1987 133.063 40.9145 141.626C42.031 143.298 43.1686 145.698 45.3059 146.207C47.407 146.702 49.9347 145.451 51.8815 144.783C56.7113 143.127 61.4111 141.118 66.0149 138.912C70.6141 136.708 75.1253 134.315 79.5981 131.872C84.0662 129.431 88.5596 127.001 92.8999 124.333C101.636 118.959 109.25 112.015 117.05 105.404C118.455 104.214 119.859 103.02 121.269 101.828C122.18 105.117 123.731 108.388 127.155 109.581C131.117 110.96 135.296 108.742 138.251 106.191C141.93 103.016 145.03 99.1116 147.412 94.884C149.489 91.2002 151.128 86.5168 149.585 82.3343C148.398 79.1279 145.26 76.5174 141.868 76.4526C142.887 72.361 143.613 67.8851 141.772 63.9865C140.252 60.7722 137.147 58.0186 133.512 57.977C132.324 52.4831 129.544 46.6285 124.007 44.9036C127.564 39.7986 132.001 35.2065 134.117 29.2469C135.964 24.0543 136.33 15.8171 130.386 13.0184L130.388 13.023Z" fill="#ACEBAB"/>
<path d="M84.699 53.0412C84.8852 52.099 85.0635 51.1491 85.1995 50.1984C85.3229 49.3308 85.5154 48.3916 85.2214 47.5457C85.1389 47.3125 84.7692 47.2019 84.6154 47.4348C84.1203 48.1714 84.0101 49.0763 83.8145 49.9326C83.6 50.8691 83.3809 51.8073 83.1571 52.7471C82.7027 54.6815 82.2469 56.627 81.9354 58.5949C81.6281 60.5298 81.4432 62.4844 81.1202 64.4196C80.8043 66.3156 80.1163 68.2277 80.0653 70.1454C80.0525 70.6433 80.8447 70.9245 81.1215 70.4907C82.1319 68.9263 82.3822 66.9486 82.6965 65.1372C83.0433 63.1358 83.2537 61.1197 83.5456 59.1115C83.8416 57.0704 84.2979 55.0671 84.696 53.0475L84.699 53.0412Z" fill="#101930"/>
<path d="M142.292 75.0223C141.018 76.1237 140.169 77.8197 139.226 79.2029C138.158 80.7668 137.081 82.3231 135.983 83.8609C133.868 86.8287 131.67 89.737 129.323 92.5244C128.042 94.0484 126.707 95.675 125.257 97.1536C125.99 94.9527 126.666 92.6668 126.875 90.4254C127.107 87.9505 126.347 85.7424 124.076 84.5149C121.745 83.2509 119.056 83.6458 116.664 84.5235C115.391 84.9896 114.189 85.6249 112.888 86.0117C112.751 86.0549 112.601 86.0921 112.441 86.1278C114.323 84.2393 116.157 82.3046 117.939 80.3255C124.214 73.3621 129.824 65.8413 134.762 57.8758C135.239 57.1035 133.969 56.5086 133.493 57.27C129.357 63.8548 124.732 70.1403 119.683 76.0564C117.222 78.9366 114.664 81.731 112.003 84.4303C111.832 84.6008 111.668 84.7744 111.497 84.9449C112.028 82.8103 112.415 80.6267 112.63 78.4462C112.89 75.7987 112.373 73.1637 109.961 71.6868C107.944 70.4484 105.395 70.4105 103.199 71.1453C101.927 71.5691 100.716 72.1811 99.5533 72.8392C99.1646 73.0607 98.7619 73.2871 98.3658 73.5322C100.663 69.4923 103.687 65.7881 106.692 62.4004C112.325 56.0417 118.768 50.4929 124.792 44.5261C125.161 44.1595 124.571 43.5021 124.172 43.8427C118.001 49.1534 111.879 54.5884 106.363 60.596C101.507 65.8874 96.65 71.9456 94.316 78.8323C92.659 83.7164 91.5745 94.8474 99.4354 94.7429C102.814 94.6969 105.754 92.4447 108.204 90.2187C107.297 96.2439 111.056 103.725 117.914 103.188C121.014 102.947 123.517 100.928 125.677 98.7576C126.871 98.2304 128.045 97.8099 129.43 97.661C130.325 97.5649 131.224 97.5406 132.12 97.5384C132.995 97.5333 133.983 97.4621 134.818 97.7754C136.296 98.3337 136.885 100.104 136.838 101.558C136.778 103.406 135.913 105.16 135.306 106.87C135.038 107.626 136.153 108.182 136.449 107.416C137.664 104.22 139.9 98.9688 135.806 96.7278C134.063 95.7754 131.419 96.1179 129.53 96.3135C128.948 96.3727 128.33 96.4653 127.721 96.6126C130.444 93.6603 132.951 90.5116 135.327 87.273C136.686 85.4175 138.003 83.5345 139.3 81.6379C139.989 80.6332 140.665 79.6226 141.346 78.6103C141.96 77.69 142.739 76.7479 143.094 75.6883C143.239 75.2538 142.765 74.6397 142.315 75.0297L142.292 75.0223ZM97.8323 92.9853C96.1847 92.3926 95.3487 90.7414 94.9502 89.1402C94.1768 86.0342 94.6604 82.6096 95.6289 79.6064C96.0925 78.1724 96.6804 76.7785 97.3534 75.4174C99.1977 74.5341 100.874 73.3377 102.84 72.6524C104.888 71.9438 107.132 71.6697 109.097 72.7901C111.665 74.2485 111.43 77.2179 111.047 79.7567C110.689 82.14 110.247 84.4952 109.604 86.8165C109.596 86.8401 109.598 86.8604 109.591 86.884C107.547 88.9398 105.378 90.9354 102.851 92.2333C101.362 92.9959 99.4798 93.5779 97.8276 92.9869L97.8323 92.9853ZM112.348 99.5581C109.429 96.7964 109.306 92.8571 109.369 89.1194C109.853 88.6646 110.33 88.2021 110.811 87.738C111.386 87.6868 111.99 87.4786 112.519 87.3594C113.524 87.1298 114.445 86.8407 115.397 86.4462C117.682 85.486 120.319 84.5162 122.777 85.4415C125.322 86.4043 125.808 88.6987 125.39 91.1661C124.942 93.8171 123.955 96.3653 123.312 98.9698C122.69 99.4944 122.043 99.9803 121.37 100.407C118.368 102.319 114.931 102.008 112.349 99.5627L112.348 99.5581Z" fill="#101930"/>
<path d="M77.6225 39.4604C78.7075 37.0089 78.6766 34.1179 78.327 31.5127C78.1356 30.1111 77.8489 28.7222 77.5109 27.3514C77.2522 26.2936 77.0712 24.6102 76.3009 23.8121C76.1078 23.6076 75.7872 23.784 75.7272 24.0151C75.5132 24.8937 76.0492 26.0527 76.245 26.9176C76.5238 28.1361 76.798 29.3563 76.988 30.5905C77.3357 32.8343 77.5155 35.2266 76.8988 37.4441C76.4981 38.8925 75.8 40.0788 74.391 40.7242C73.3389 41.2066 72.168 41.3531 71.0226 41.349C68.6847 41.3417 66.259 40.5519 64.4999 38.9912C63.7349 38.312 62.7056 39.5262 63.4706 40.2054C66.9633 43.2993 75.2781 44.745 77.6132 39.4636L77.6225 39.4604Z" fill="#101930"/>
<path d="M146.967 10.742C153.838 9.29275 160.993 8.57217 167.998 8.06714C170.836 7.87136 173.678 8.07294 176.489 8.51138C177.896 8.73759 179.297 9.0187 180.681 9.45816L180.668 9.70405C176.478 10.4096 172.267 10.6555 168.037 10.5199C165.238 10.3661 162.438 10.3749 159.637 10.4371C155.42 10.5016 151.217 10.6972 147.007 10.99L146.973 10.745L146.967 10.742Z" fill="#101930"/>
<path d="M148.466 35.3329C156.137 35.4635 167.294 35.8356 175.077 36.105C179.51 36.2634 183.954 36.2339 188.372 36.6758C192.754 37.12 197.282 37.6538 201.585 38.6032L201.568 38.8508C198.219 39.1748 194.895 39.2121 191.549 39.2043C186.023 39.2332 180.435 38.6124 174.957 38.0787C167.17 37.3854 156.126 36.3963 148.453 35.5788L148.47 35.3313L148.466 35.3329Z" fill="#101930"/>
<path d="M143.034 27.3361C146.201 26.111 149.51 25.2135 152.865 24.6562C154.355 24.4021 156.463 23.9395 157.968 24.0998C159.683 24.2281 161.397 24.5348 163.036 25.3248L163.018 25.5723C161.306 26.1465 159.658 26.3832 158.015 26.5759C155.546 26.8041 153.058 26.4771 150.583 26.7648C148.078 26.9217 145.597 27.2064 143.1 27.5806L143.036 27.3408L143.034 27.3361Z" fill="#101930"/>
<path d="M223.649 100.949C223.337 100.75 223.023 100.751 223.023 100.751C222.615 100.754 222.328 100.984 222.251 101.045C220.219 102.705 200.655 118.689 199.426 120.011C199.28 120.171 198.88 120.598 198.895 121.115C198.919 121.638 199.364 121.998 199.557 122.148C200.489 122.865 211.412 130.938 226.401 141.973C226.613 142.136 227.117 142.477 227.865 142.558C228.672 142.64 229.293 142.362 229.539 142.239C238.94 137.518 248.35 132.804 257.752 128.091C257.845 128.015 258.565 127.455 258.631 126.483C258.681 125.627 258.193 125.074 258.094 124.978C238.523 111.297 224.162 101.269 223.652 100.944L223.649 100.949ZM226.318 133.115C219.046 129.191 211.776 125.262 204.504 121.337C210.228 116.634 215.954 111.938 221.686 107.234C230.149 112.981 238.62 118.728 247.088 124.478C240.164 127.352 233.241 130.234 226.317 133.108L226.318 133.115Z" fill="white"/>
<path d="M236.781 66.8732C236.233 66.508 235.527 66.4629 234.939 66.7507C234.01 67.2105 233.924 68.2299 233.924 68.2771C233.437 69.7432 224.209 97.8005 223.983 98.9438C223.877 99.5102 224.08 99.9026 224.08 99.9026C224.214 100.166 224.431 100.339 224.611 100.452L256.047 122.417C256.147 122.501 256.243 122.582 256.339 122.663L257.889 123.673L258.273 123.902C258.822 124.303 259.466 124.418 260.209 124.26C260.953 124.101 261.548 123.69 261.995 123.026C262.217 122.758 262.383 122.503 262.471 122.255L264.007 118.666C267.162 110.952 270.317 103.239 273.471 95.5258C273.509 95.4442 273.943 94.5623 273.469 93.7154C273.178 93.1934 272.713 92.9746 272.54 92.8997L236.769 66.8714L236.781 66.8732ZM262.214 97.4143L257.763 112.429L231.185 97.4801C235.48 91.7171 239.777 85.9617 244.07 80.2032C250.12 85.9398 256.163 91.6777 262.214 97.4143Z" fill="white"/>
<path d="M230.756 70.6422C230.564 70.7164 230.373 70.7982 230.186 70.8755C222.775 76.9633 215.371 83.0619 207.965 89.1529C203.797 100.034 196.903 118.133 196.881 118.826C196.872 119.198 197.024 119.312 197.033 119.318C197.158 119.406 197.354 119.355 197.528 119.268C210.053 109.012 219.046 101.649 220.116 100.884C220.319 100.737 221.139 100.187 221.647 99.1543C221.846 98.748 221.931 98.4098 221.95 98.3355C222.185 97.4346 224.724 90.4825 231.697 71.9793C231.736 71.8383 231.794 71.5483 231.697 71.2234C231.654 71.0855 231.579 70.8433 231.345 70.7125C231.132 70.5897 230.906 70.6267 230.757 70.6498L230.756 70.6422ZM218.233 97.5139C213.903 100.709 209.577 103.906 205.247 107.101C206.758 101.922 208.262 96.7518 209.774 91.5804C215.296 87.0317 220.816 82.4876 226.338 77.939C223.634 84.4644 220.937 90.9885 218.24 97.5125L218.233 97.5139Z" fill="white"/>
<path d="M212.4 117.96C211.767 118.075 210.842 118.766 210.25 119.267C209.816 119.657 209.338 120.043 209.168 120.577C209.035 121.409 210.005 121.882 211.075 122.723C212.141 123.487 213.37 124.197 214.696 124.023C215.951 123.827 218.337 122.989 217.993 121.748C217.848 121.322 217.316 120.839 216.623 120.331C215.878 119.793 215.004 119.192 214.333 118.719C213.539 118.174 213.022 117.851 212.453 117.95L212.4 117.96Z" fill="white"/>
<path d="M226.081 124.957C227.212 124.646 228.87 123.546 229.503 122.439C229.751 121.595 228.771 121.06 227.706 120.155C226.663 119.341 225.442 118.582 224.099 118.723C222.782 118.903 220.677 119.56 220.581 120.735C220.629 121.423 221.582 122.148 222.318 122.727C223.474 123.466 224.81 125.035 226.028 124.967L226.081 124.957Z" fill="white"/>
<path d="M239.324 122.044C238.977 120.875 237.049 120.146 235.963 119.307C235.17 118.81 234.174 118.156 233.502 118.344C232.424 118.827 232.52 121.034 232.795 122.335C233.116 123.646 234.242 124.54 235.361 125.247C236.58 125.943 237.411 126.69 238.117 126.168C238.945 125.199 239.421 123.266 239.333 122.097L239.324 122.044Z" fill="white"/>
<path d="M250.707 98.5402C249.6 98.8001 248.704 102.454 249.298 103.406C249.658 104.132 250.362 104.634 251.007 105.115C252.271 105.984 253.462 106.985 254.544 107.139C256.001 107.307 257.14 104.282 256.697 102.993C256.286 101.933 255.264 101.288 254.342 100.585C253.381 99.9291 251.617 98.4382 250.761 98.5305L250.707 98.5402Z" fill="white"/>
<path d="M248.715 95.2491C249.822 94.9892 250.719 91.3348 250.125 90.3836C249.764 89.6576 249.06 89.1554 248.415 88.6741C247.151 87.805 245.96 86.8047 244.878 86.6505C243.421 86.4818 242.283 89.507 242.725 90.7967C243.136 91.8558 244.159 92.501 245.08 93.2038C246.042 93.8601 247.805 95.3511 248.662 95.2588L248.715 95.2491Z" fill="white"/>
<path d="M217.325 89.6675C216.793 89.6774 216.218 90.258 215.769 90.5835C214.686 91.461 213.582 92.2832 212.818 93.6619C212.078 94.977 211.531 96.6431 211.039 98.0116C210.911 98.4207 210.882 98.6701 210.982 98.7268C211.123 98.7721 211.238 98.6843 211.4 98.5958C212.127 98.1293 212.968 97.3982 213.686 96.8309C214.932 95.8253 215.864 95.2391 216.305 93.6868C216.652 92.6357 217.357 91.067 217.503 90.1035C217.519 89.9118 217.518 89.7427 217.354 89.6741L217.32 89.6643L217.325 89.6675Z" fill="white"/>
</svg>
