<svg width="164" height="205" viewBox="0 0 164 205" fill="none" xmlns="http://www.w3.org/2000/svg">
<path d="M68.2566 117.411C68.8408 115.304 69.0481 113.055 69.408 110.904C69.7278 108.968 70.6102 106.462 69.7365 104.571C68.9231 102.802 66.8296 101.496 65.2161 100.562C60.5694 97.8801 55.1987 96.25 50.1415 94.5234C49.0124 94.1397 48.2418 95.4098 48.6542 96.2219L48.5109 96.3013C48.3077 95.9731 47.8402 95.7846 47.4881 96.0912C45.1506 98.1098 43.3694 100.479 41.944 103.212C40.8347 105.335 39.9189 107.877 40.7409 110.254C41.528 112.53 43.7694 113.854 46.0794 114.118C48.1173 114.356 50.0722 113.748 51.9241 112.925C51.3066 115.923 51.2267 119.107 53.4776 121.48C56.4782 124.64 60.895 122.846 64.2168 121.248C66.0767 120.353 67.6708 119.54 68.2614 117.413L68.2566 117.411Z" fill="#ACEBAB"/>
<path d="M62.4506 103.748C60.3359 104.721 58.4508 106.451 56.7171 107.982C54.8559 109.624 53.1425 111.428 51.4116 113.204C51.0243 113.599 51.5467 114.289 51.9611 113.892C53.7045 112.237 55.4717 110.606 57.2866 109.022C59.1032 107.434 61.134 106.156 62.979 104.625C63.4267 104.255 62.9888 103.504 62.4442 103.751L62.4506 103.748Z" fill="#101930"/>
<path d="M57.6304 7.52371L28.4409 83.9182C27.292 86.9189 28.795 90.2883 31.802 91.434L79.096 109.502C82.2287 110.7 85.7429 109.129 86.9366 105.995L116.73 28.0197C117.738 25.3752 116.416 22.4167 113.773 21.4036L66.7529 3.43799C63.1065 2.04619 59.019 3.87102 57.6272 7.51734L57.6304 7.52371Z" fill="white"/>
<path d="M79.6171 109.703L32.4837 91.6945C29.1109 90.4049 27.4145 86.6152 28.704 83.2424L57.8184 7.04033C59.108 3.66753 62.8977 1.9711 66.2705 3.26063L113.404 21.2694C116.777 22.5589 118.473 26.3487 117.184 29.7215L88.0691 105.924C86.7796 109.296 82.9899 110.993 79.6171 109.703ZM65.3022 5.80177C63.3303 5.05073 61.1154 6.03845 60.3596 8.00869L31.2452 84.2108C30.4941 86.1826 31.4818 88.3975 33.4521 89.1533L80.5854 107.162C82.5573 107.913 84.7722 106.925 85.5232 104.954L114.638 28.7515C115.389 26.7797 114.401 24.5647 112.431 23.8089L65.2974 5.80017L65.3022 5.80177Z" fill="#101930"/>
<path d="M82.4463 102.511C12.7584 75.3994 33.921 98.0776 61.6874 11.2347C62.702 7.63713 109.077 29.1596 110.722 28.5114C111.421 28.7831 111.773 29.5697 111.502 30.2694C109.855 31.0973 85.8918 104.122 82.4463 102.511ZM37.4151 82.3943C103.032 109.065 74.9892 103.021 108.481 30.5732C42.8597 3.9008 70.9024 9.94487 37.4151 82.3943Z" fill="#101930"/>
<path d="M66.5795 42.3054C70.7781 42.5716 72.2173 37.2005 75.293 35.2436C77.807 33.3319 81.4394 34.4325 83.0089 37.0334C85.0612 40.1729 84.2486 44.8146 81.6391 48.7534C79.3979 52.1946 76.1865 54.4139 72.5852 56.6882C70.0016 58.3484 67.3733 60.1422 65.371 62.4748C62.9546 65.0136 61.3689 69.5395 62.1468 71.5886C62.4034 72.3274 62.8228 71.7727 63.0798 71.2592C66.4069 63.4376 71.5054 62.2063 78.6667 58.6361C88.6206 53.9853 95.4687 41.3895 90.2042 33.1084C86.8414 27.6246 79.4255 25.3038 73.3191 26.9138C69.755 27.8261 66.9206 30.108 65.2473 32.6942C62.8929 36.2992 62.4347 41.1658 66.5254 42.3085L66.5858 42.3182L66.5795 42.3054Z" fill="#101930"/>
<path d="M62.1115 72.7072C60.2804 71.5364 60.6184 68.1684 61.336 66.1853C63.9498 58.6394 72.7483 56.1221 78.0984 50.8305C81.6045 47.4629 84.8068 40.9952 80.8036 36.9471C77.6179 34.1336 74.6829 37.5705 72.6434 40.2993C66.5633 48.3392 59.5206 40.5502 63.4152 33.0461C67.2441 24.8514 76.1014 22.3803 84.3029 25.9196C99.952 32.8888 93.3535 52.5148 80.7133 59.3221C76.2664 61.9976 70.859 63.3748 67.2488 67.2117C65.3396 69.0289 64.0582 73.28 62.1481 72.7248L62.1147 72.7136L62.1115 72.7072ZM80.0727 32.3666C84.3172 33.8102 86.2095 38.52 85.5739 42.8708C85.1052 46.4232 83.2856 49.889 80.7781 52.7157C77.7074 56.4945 69.9998 60.3804 67.041 62.8436C66.8434 63.0374 66.622 63.1595 66.5819 63.3583C66.5866 63.4077 66.6614 63.4221 66.7967 63.3985C68.8169 62.786 72.2838 60.9601 74.7425 59.8153C80.9716 57.0312 86.6864 52.5518 89.3048 46.1006C93.9415 35.2738 86.4398 25.9565 75.1422 27.0791C70.2914 27.6663 65.9263 31.9029 65.1327 36.567C64.9572 37.8349 65.0707 39.4915 66.2359 40.2269C69.2697 41.5461 71.9183 35.0838 74.1946 33.5648C75.7752 32.2053 77.9862 31.6885 79.9868 32.3378L80.0727 32.3666Z" fill="#101930"/>
<path d="M59.0027 79.6095C60.9272 75.1971 67.8379 78.0438 66.0008 82.5438C64.0114 86.6904 57.5062 84.0433 58.9676 79.6986L58.998 79.6079L59.0027 79.6095Z" fill="#101930"/>
<path d="M60.7257 85.6321C57.3193 84.4428 56.2134 79.5879 59.0749 77.2567C61.9703 74.6343 67.1353 76.5616 67.6175 80.4274C68.2799 84.1041 64.1921 87.0698 60.8148 85.6673L60.7193 85.6353L60.7257 85.6321ZM63.2952 78.8992C60.6347 77.9545 58.8615 81.3138 61.2887 82.8596C64.3314 84.6116 66.6072 80.4019 63.3938 78.9376L63.2984 78.9056L63.2952 78.8992Z" fill="#101930"/>
<path d="M133.962 119.749C134 116.705 133.591 113.665 133.227 110.651C132.461 104.355 131.513 98.0781 130.384 91.8357C129.255 85.5933 127.95 79.3824 126.468 73.2126C125.864 70.7071 125.249 67.6511 122.582 66.5505C121.127 65.9514 119.516 66.1016 117.981 66.0911C116.377 66.079 114.775 66.0143 113.174 65.929C109.978 65.7599 106.786 65.5607 103.586 65.5603C102.966 65.5593 102.385 65.8368 102.153 66.449C97.0312 80.1169 91.9745 93.8119 86.7668 107.451C86.3735 104.698 85.9563 101.952 85.5518 99.2004C85.0607 95.8836 84.5696 92.5668 84.0801 89.2452C83.6772 86.5205 83.4495 83.6528 82.4242 81.075C81.5161 78.7966 79.7832 76.9051 77.3689 76.2392C75.0421 75.5974 72.4859 76.0356 70.3964 77.2193C65.3047 80.1086 63.969 86.4854 63.6038 91.8662C63.2142 97.6368 63.8684 103.412 63.6061 109.183C63.4789 112.08 63.1257 114.987 62.2699 117.762C61.2878 120.93 59.7778 123.9 58.1406 126.774C54.8838 132.486 51.5714 138.126 48.6913 144.044C45.8129 149.957 43.2524 156.013 41.0243 162.203C39.9087 165.294 38.8789 168.414 37.9255 171.56C37.5367 172.847 37.0461 174.184 37.4162 175.534C37.7896 176.89 38.8973 177.686 40.0243 178.409C45.3619 181.848 51.0026 184.842 56.8286 187.362C62.6673 189.892 68.7136 191.945 74.8912 193.479C77.9673 194.245 81.0786 194.89 84.2061 195.407C85.7745 195.667 87.3494 195.909 88.9308 196.083C90.256 196.23 91.6323 196.224 92.7539 195.395C93.8977 194.548 94.6765 193.142 95.4851 191.996C96.4244 190.666 97.3558 189.328 98.2793 187.982C100.125 185.294 101.94 182.585 103.718 179.859C107.283 174.399 110.717 168.858 114.016 163.24C117.313 157.632 120.474 151.952 123.507 146.197C126.502 140.519 129.697 134.771 132.038 128.784C133.172 125.89 133.922 122.861 133.964 119.744L133.962 119.749Z" fill="#ACEBAB"/>
<path d="M107.072 112.212C108.375 103.399 109.448 94.5617 110.167 85.6857C110.199 85.288 109.843 84.9405 109.444 85.0083C104.438 85.8992 99.3725 86.5577 94.3921 87.5792C93.9241 87.6771 94.0504 88.3296 94.5118 88.2986C99.3129 88.0183 104.118 87.2035 108.853 86.3757C108.127 94.8142 107.177 103.236 105.905 111.609C103.01 112.077 100.04 112.641 97.3047 113.693C96.7926 112.529 96.793 111.325 96.7791 110.068C96.7654 108.699 96.7946 107.33 96.8669 105.958C97.0097 103.22 97.3387 100.496 97.7568 97.792C97.8372 97.267 97.2776 97.0052 96.8493 97.1429C94.6555 97.8618 92.4643 97.9394 90.1887 98.1107C89.6874 98.1497 89.769 98.8722 90.216 98.9477C92.206 99.2803 94.3211 99.0021 96.306 98.5741C95.8323 101.254 95.5637 103.972 95.4543 106.689C95.3963 108.129 95.3844 109.574 95.4219 111.014C95.4519 112.112 95.5074 113.245 96.0516 114.218C94.0277 115.143 92.1672 116.387 90.6146 118.122C90.0391 118.762 91.1199 119.544 91.6873 118.911C95.4238 114.745 101.306 113.692 106.559 112.762C106.841 112.713 107.033 112.486 107.074 112.207L107.072 112.212Z" fill="#101930"/>
<path d="M88.7161 115.363C88.4156 112.237 87.9978 108.892 86.8935 105.932C86.7462 105.533 86.146 105.74 86.1978 106.14C86.624 109.286 87.3493 112.363 87.6338 115.536C87.7807 117.172 87.8545 118.805 87.8725 120.445C87.8859 121.973 87.7418 123.511 87.8317 125.033C87.8689 125.618 88.7076 125.507 88.7976 125.001C89.3563 121.924 89.0086 118.449 88.7113 115.361L88.7161 115.363Z" fill="#101930"/>
</svg>
