<svg width="180" height="178" viewBox="0 0 180 178" fill="none" xmlns="http://www.w3.org/2000/svg">
<g clip-path="url(#clip0_142_109)">
<path d="M86.8092 67.2557C86.959 66.6901 86.8088 66.2198 86.8088 66.2198C86.6125 65.609 86.1361 65.2889 86.0095 65.2043C82.5852 62.9628 49.6172 41.3969 47.0743 40.1965C46.7672 40.0555 45.9441 39.663 45.1826 39.9383C44.4159 40.23 44.0891 41.0735 43.9572 41.4376C43.3293 43.1867 36.4563 63.5277 27.0873 91.4194C26.9452 91.8163 26.6743 92.7404 26.9055 93.9025C27.1627 95.1538 27.8682 95.9508 28.1677 96.2606C39.607 108.069 51.0411 119.894 62.4696 131.709C62.6265 131.812 63.7972 132.619 65.2747 132.243C66.5706 131.901 67.1635 130.897 67.2605 130.703C78.4095 94.6399 86.5737 68.1818 86.8174 67.2582L86.8092 67.2557ZM40.2232 86.97C42.6419 74.1351 45.0688 61.3027 47.4875 48.4678C57.1732 54.7655 66.8482 61.0688 76.5395 67.3773C71.9687 82.8899 67.4035 98.4132 62.8301 113.934C55.3016 104.942 47.7624 95.9561 40.234 86.9644L40.2232 86.97Z" fill="#F4FFFD"/>
<path d="M143.662 70.332C143.947 69.3316 143.682 68.249 142.978 67.5063C141.858 66.3364 140.301 66.7054 140.231 66.7285C137.822 66.7138 91.7554 66.5597 89.9487 66.7784C89.0564 66.8957 88.5681 67.3915 88.5681 67.3915C88.2399 67.7212 88.0845 68.132 88.0008 68.4571L70.1078 126.378C70.0298 126.57 69.9544 126.754 69.879 126.937L69.1053 129.758L68.9441 130.446C68.6071 131.466 68.7377 132.489 69.3227 133.527C69.9077 134.566 70.7988 135.259 71.9962 135.606C72.5003 135.809 72.9567 135.933 73.3674 135.945L79.4273 136.497C92.3819 137.467 105.337 138.437 118.291 139.407C118.43 139.424 119.946 139.646 120.983 138.52C121.622 137.828 121.729 137.024 121.759 136.727L143.659 70.3131L143.662 70.332ZM110.191 123.428L85.769 124.078L95.5103 76.8755C106.101 80.5108 116.68 84.1517 127.262 87.7845C121.574 99.6692 115.88 111.543 110.191 123.428Z" fill="#F4FFFD"/>
<path d="M135.223 63.1275C135.023 62.8756 134.811 62.6295 134.608 62.3858C122.071 54.2329 109.521 46.0938 96.9808 37.949C78.8391 37.0055 48.6801 35.4931 47.639 35.798C47.0821 35.9662 46.9841 36.2508 46.9789 36.2672C46.9071 36.4969 47.0753 36.7657 47.286 36.9847C68.4254 50.7813 83.6029 60.6875 85.2437 61.921C85.5581 62.1544 86.7615 63.1161 88.5363 63.3738C89.2343 63.4749 89.7773 63.4375 89.8968 63.4299C91.3471 63.3429 102.88 63.7604 133.677 65.1929C133.905 65.1832 134.363 65.1284 134.801 64.8238C134.986 64.6925 135.311 64.4608 135.395 64.0459C135.478 63.6665 135.317 63.3459 135.212 63.1331L135.223 63.1275ZM89.3715 57.4473C82.5851 52.5064 75.7961 47.5737 69.0097 42.6328C77.4224 42.3719 85.8188 42.1059 94.2208 41.8506C103.581 47.9206 112.934 53.988 122.294 60.058C111.318 59.1842 100.348 58.3211 89.3772 57.458L89.3715 57.4473Z" fill="#F4FFFD"/>
<path d="M56.2215 58.6745C55.7534 57.7806 54.29 56.7286 53.2665 56.0843C52.483 55.6232 51.6846 55.0944 50.8092 55.0999C49.5107 55.3064 49.2623 56.994 48.5143 59.0119C47.8797 60.9841 47.4014 63.1763 48.2827 65.082C49.1645 66.8708 51.5322 70.0429 53.216 68.9211C53.7817 68.4946 54.249 67.4608 54.6789 66.1721C55.1288 64.7907 55.6126 63.1856 56 61.9467C56.4376 60.4894 56.6757 59.555 56.2609 58.7499L56.2215 58.6745Z" fill="#F4FFFD"/>
<path d="M52.2438 82.6316C53.238 84.1763 55.6536 86.1295 57.5971 86.539C58.9694 86.4997 59.304 84.7669 60.1494 82.7255C60.8712 80.7626 61.4253 78.5581 60.5841 76.6108C59.6977 74.7214 57.7304 71.8817 55.9386 72.3122C54.9375 72.7198 54.3075 74.5043 53.7924 75.8924C53.2363 77.9882 51.5318 80.7608 52.2043 82.5562L52.2438 82.6316Z" fill="#F4FFFD"/>
<path d="M62.8015 101.09C64.377 99.9979 64.5554 96.7482 65.2921 94.7088C65.6595 93.2745 66.1638 91.4598 65.5676 90.5438C64.3426 89.1611 61.1056 90.3826 59.3008 91.4306C57.5002 92.5519 56.6999 94.6794 56.175 96.704C55.7126 98.8741 54.9924 100.486 56.1005 101.292C57.9311 102.063 61.0291 101.833 62.7261 101.13L62.8015 101.09Z" fill="#F4FFFD"/>
<path d="M103.108 106.703C102.201 105.168 96.3447 105.606 95.2091 106.963C94.2987 107.858 93.8827 109.16 93.4702 110.364C92.7714 112.685 91.8434 114.962 92.1226 116.662C92.5567 118.932 97.591 119.164 99.3014 117.87C100.683 116.735 101.162 114.885 101.774 113.158C102.299 111.395 103.687 108.019 103.148 106.779L103.108 106.703Z" fill="#F4FFFD"/>
<path d="M107.068 102.105C107.975 103.64 113.831 103.202 114.967 101.845C115.877 100.95 116.293 99.6482 116.705 98.4442C117.404 96.1228 118.332 93.846 118.053 92.1465C117.619 89.8762 112.585 89.6442 110.874 90.9378C109.493 92.073 109.013 93.9227 108.401 95.6497C107.877 97.4132 106.488 100.789 107.028 102.029L107.068 102.105Z" fill="#F4FFFD"/>
<path d="M100.615 52.2528C100.35 51.4585 99.216 50.8788 98.5212 50.3644C96.707 49.1667 94.9651 47.9106 92.5555 47.4364C90.252 46.9684 87.5166 46.9598 85.2505 46.8907C84.5818 46.8978 84.1971 46.9757 84.1597 47.1532C84.1586 47.387 84.3432 47.5168 84.5509 47.7168C85.5867 48.581 87.0691 49.4858 88.2505 50.2875C90.3318 51.6678 91.6414 52.7798 94.1573 52.6837C95.8839 52.6922 98.5485 52.9849 100.05 52.7338C100.342 52.6631 100.594 52.5795 100.618 52.299L100.617 52.2446L100.615 52.2528Z" fill="#F4FFFD"/>
</g>
<defs>
<clipPath id="clip0_142_109">
<rect width="143.559" height="140.86" fill="white" transform="translate(42.0338) rotate(17.362)"/>
</clipPath>
</defs>
</svg>
