<svg width="213" height="50" viewBox="0 0 213 50" fill="none" xmlns="http://www.w3.org/2000/svg">
<path d="M64.9534 42.0707L61.9494 13.6884C61.9164 13.5128 61.8999 13.3483 61.8999 13.202C61.9659 12.7302 62.2176 12.3462 62.6509 12.05C63.0842 11.7538 63.567 11.6368 64.1034 11.6953L82.3173 13.6006C82.8496 13.6591 83.2828 13.8749 83.6171 14.2442C83.9513 14.6136 84.0999 15.0342 84.0669 15.5096C84.0669 15.5388 84.0504 15.5681 84.0173 15.5974L83.0683 23.3576C83.0353 23.7416 82.8661 24.0744 82.569 24.356C82.2678 24.6376 81.9005 24.8058 81.4672 24.8643L79.2637 25.3507L81.9665 25.5262C82.4328 25.5555 82.8331 25.7128 83.1673 25.9907C83.5015 26.2723 83.6996 26.6051 83.7698 26.9891L86.0228 37.3678C86.1218 37.8103 86.0393 38.2272 85.7711 38.6112C85.5028 38.9952 85.1191 39.2475 84.6198 39.3645L70.8583 42.8241L67.454 43.6652C66.9217 43.7822 66.4183 43.7237 65.952 43.486C65.4857 43.2483 65.1845 42.9082 65.0525 42.4657C65.0195 42.3194 64.9864 42.1841 64.9534 42.0671V42.0707ZM68.7043 24.0671L79.3628 21.7595L79.9652 16.8371L66.9547 15.462C67.322 17.2942 67.9038 20.165 68.7043 24.0671ZM69.5544 28.1447C69.8886 29.7136 70.4704 32.4454 71.3039 36.3511L79.9116 35.1991L79.5113 28.8139L69.5544 28.1483V28.1447Z" fill="#1468E5"/>
<path d="M88.3706 42.3373L87.1203 20.9619C87.0873 20.1354 87.4875 19.5722 88.3211 19.276L105.937 11.779C106.403 11.5742 106.894 11.5486 107.414 11.7132C107.93 11.8778 108.305 12.163 108.54 12.5799C108.639 12.8176 108.705 13.0517 108.738 13.2894L109.139 34.4015V34.8879C109.139 35.6559 108.755 36.1898 107.987 36.4861L91.1724 43.8038C90.6731 44.0123 90.1697 44.0415 89.6704 43.8916C89.1711 43.7453 88.8039 43.4491 88.5687 43.0029C88.4366 42.7981 88.3665 42.575 88.3665 42.3373H88.3706ZM103.436 18.2557L91.226 22.0261L93.3264 37.1955L105.087 33.3812L103.436 18.2593V18.2557Z" fill="#1468E5"/>
<path d="M115.795 15.9042C115.927 15.1362 116.397 14.6462 117.198 14.4414L127.006 11.8266C127.538 11.6803 128.042 11.7242 128.508 11.9582C128.974 12.1959 129.292 12.536 129.457 12.9786C129.49 13.0663 129.507 13.1541 129.507 13.2455L132.709 26.0635C132.742 26.122 132.767 26.1878 132.783 26.2646C132.8 26.3378 132.824 26.4036 132.857 26.4658L135.61 37.5101L146.767 36.9798C147.102 36.9505 147.419 36.9944 147.716 37.1114C148.018 37.2285 148.265 37.4003 148.467 37.6198C148.67 37.8392 148.802 38.1025 148.868 38.3951L149.367 41.1452C149.4 41.2329 149.416 41.3244 149.416 41.4121C149.416 41.7084 149.334 41.9899 149.165 42.2533C148.996 42.5202 148.765 42.7323 148.463 42.8969C148.162 43.0615 147.828 43.1419 147.461 43.1419L131.397 43.2736C130.864 43.3028 130.394 43.1712 129.994 42.875C129.593 42.5787 129.358 42.2094 129.292 41.7669L127.943 31.5673L118.337 31.2126L117.486 40.838C117.42 41.3097 117.185 41.7047 116.785 42.0119C116.385 42.3191 115.918 42.4617 115.382 42.4324H112.63C112.097 42.4324 111.635 42.2642 111.252 41.9205C110.868 41.5804 110.674 41.1744 110.674 40.699C110.674 40.6112 110.69 40.5088 110.723 40.3882L115.778 15.9079L115.795 15.9042ZM118.696 27.2155L127.204 25.5734L125.904 15.7287L119.599 17.4146L118.7 27.2155H118.696ZM155.577 29.3L152.375 29.1244L158.532 39.7226C158.763 40.1358 158.8 40.571 158.631 41.0318C158.462 41.4889 158.148 41.8217 157.682 42.0302C157.616 42.0887 157.533 42.1326 157.43 42.1618L154.876 42.9591C154.376 43.109 153.881 43.0761 153.398 42.8713C152.916 42.6665 152.573 42.3374 152.371 41.8949C152.371 41.8656 152.354 41.8217 152.321 41.7632L147.667 28.9014L143.264 28.6783L143.966 33.1143C143.999 33.1728 144.015 33.2313 144.015 33.2898C144.048 33.7616 143.891 34.1858 143.541 34.5552C143.19 34.9245 142.748 35.1257 142.216 35.1549L139.212 35.3305H139.162C138.927 35.3305 138.713 35.3085 138.51 35.2646C138.312 35.2207 138.135 35.1476 137.986 35.0415C137.838 34.9391 137.693 34.8185 137.561 34.6868C137.429 34.5552 137.326 34.3979 137.26 34.2224C137.194 34.0468 137.161 33.8676 137.161 33.6921L136.41 13.6917C136.377 13.454 136.41 13.2345 136.509 13.0261C136.674 12.5543 137 12.2142 137.487 12.0058C137.97 11.801 138.482 11.7827 139.014 11.9619L156.53 17.3268V17.3707C156.931 17.4877 157.257 17.6961 157.508 17.9924C157.76 18.2886 157.867 18.6287 157.834 19.0127L157.632 27.5263V27.658C157.632 27.9834 157.533 28.2723 157.331 28.521C157.129 28.7734 156.881 28.9708 156.58 29.1208C156.279 29.2707 155.944 29.3292 155.577 29.2963V29.3ZM141.366 16.7014L142.715 25.1712L153.774 25.749L153.922 20.2488L141.362 16.7014H141.366Z" fill="#1468E5"/>
<path d="M160.03 13.5091C160.03 13.3299 160.046 13.1544 160.079 12.9752C160.211 12.5034 160.512 12.1414 160.979 11.889C161.445 11.6367 161.928 11.5709 162.431 11.6879L180.996 15.7253C181.462 15.8423 181.837 16.0727 182.122 16.4128C182.407 16.7529 182.514 17.1296 182.448 17.5428L181.445 37.3677C181.412 38.1649 180.979 38.6842 180.146 38.9183L167.684 42.8204L165.183 43.6176C165.014 43.6761 164.816 43.7054 164.581 43.7054C164.049 43.7639 163.578 43.6322 163.178 43.3068C162.778 42.9813 162.559 42.5827 162.526 42.1109L162.476 41.8001L162.328 40.5128V40.2458L160.025 13.5018L160.03 13.5091ZM164.383 15.685L168.187 36.6619L177.794 32.2698L178.495 18.7423L164.383 15.6814V15.685Z" fill="#1468E5"/>
<path d="M198.186 29.8158C198.153 29.8451 198.116 29.8889 198.083 29.9475L189.562 42.6813C189.29 43.0909 188.902 43.3615 188.403 43.4895C187.899 43.6175 187.416 43.5627 186.954 43.3213L184.866 42.279C184.4 42.0669 184.099 41.7305 183.954 41.2733C183.81 40.8126 183.872 40.3774 184.144 39.9678C184.177 39.88 184.231 39.7922 184.297 39.7045L194.043 28.8906L184.569 18.1973C184.239 17.8097 184.111 17.3818 184.185 16.9064C184.26 16.4346 184.511 16.0543 184.949 15.7617C184.982 15.7325 185.015 15.7032 185.052 15.674L186.513 14.7999C186.95 14.5366 187.433 14.4525 187.965 14.5476C188.497 14.6427 188.91 14.8987 189.207 15.3156C189.24 15.3448 189.273 15.3887 189.306 15.4509L196.383 25.5444L201.236 17.8316C201.508 17.422 201.904 17.1441 202.424 17.0015C202.944 16.8589 203.435 16.9101 203.897 17.1478C203.963 17.2063 204.046 17.2538 204.145 17.2831L205.432 18.2266C205.861 18.4972 206.117 18.8702 206.196 19.342C206.274 19.8174 206.142 20.2453 205.804 20.6256L205.754 20.6695L198.182 29.8195L198.186 29.8158Z" fill="#1468E5"/>
<path d="M30.5393 18.8634C30.5269 18.6147 30.3908 18.4428 30.3908 18.4428C30.2133 18.2198 29.9493 18.1503 29.8791 18.132C27.9892 17.6566 9.79598 13.0853 8.45903 12.9207C8.2981 12.9024 7.86483 12.8476 7.55535 13.056C7.24587 13.2718 7.21698 13.6558 7.20873 13.8203C7.17159 14.6103 6.93639 23.7419 6.63929 36.2563C6.63104 36.4355 6.63929 36.8451 6.91163 37.2876C7.20873 37.763 7.64613 37.9971 7.82769 38.0849C14.76 41.4274 21.6924 44.7773 28.6206 48.1235C28.7072 48.1454 29.3592 48.3246 29.9823 47.9845C30.5269 47.681 30.6549 47.1982 30.6714 47.1068C30.6136 31.0487 30.5641 19.2693 30.5434 18.8634H30.5393ZM12.0201 32.7821C11.2897 27.2637 10.5635 21.7452 9.83311 16.2267C15.1727 17.5542 20.5081 18.8853 25.8517 20.2165C25.9797 27.0954 26.1117 33.978 26.2396 40.8606C21.5025 38.1653 16.7613 35.4737 12.0242 32.7785L12.0201 32.7821Z" fill="#1468E5"/>
<path d="M57.0267 12.8946C57.0144 12.4521 56.7379 12.0461 56.3088 11.834C55.6279 11.5012 54.9677 11.8487 54.9388 11.8669C53.8329 12.1668 32.7058 17.9523 31.9094 18.2704C31.5174 18.4313 31.3647 18.6947 31.3647 18.6947C31.2616 18.8702 31.2492 19.0567 31.2575 19.1993L31.3565 44.9889C31.3482 45.0766 31.34 45.1607 31.3317 45.2449L31.3813 46.4882L31.406 46.7881C31.3978 47.2453 31.6041 47.6439 32.0208 47.9913C32.4376 48.3387 32.9452 48.5069 33.5435 48.496C33.8034 48.5143 34.0304 48.5069 34.2202 48.4594L37.0757 47.9145C43.1497 46.6638 49.2237 45.4131 55.2978 44.1624C55.3638 44.1514 56.0901 44.049 56.4037 43.4602C56.5976 43.0982 56.5316 42.7581 56.5027 42.6337L57.0226 12.8873L57.0267 12.8946ZM49.298 38.7024L38.2022 42.0669L35.9038 21.6642C41.2763 21.7958 46.6448 21.9311 52.0132 22.0628C51.1095 27.6105 50.2017 33.1546 49.298 38.7024Z" fill="#1468E5"/>
<path d="M52.1287 11.0404C52.0008 10.9636 51.8687 10.8905 51.7408 10.8173C44.8291 9.09853 37.9133 7.38703 31.0016 5.67188C22.5549 7.59183 8.52101 10.8064 8.08774 11.0624C7.85667 11.2013 7.85254 11.3293 7.85254 11.3366C7.85254 11.439 7.96808 11.5268 8.096 11.589C19.7572 14.5073 28.1296 16.6028 29.058 16.8954C29.2355 16.9502 29.9246 17.1879 30.7746 17.0672C31.1089 17.0197 31.3523 16.9356 31.406 16.9173C32.0579 16.6979 37.4016 15.4033 51.716 12.0754C51.8192 12.0425 52.0214 11.962 52.1782 11.7828C52.2442 11.706 52.3598 11.5707 52.3391 11.3915C52.3226 11.2269 52.2029 11.1172 52.1245 11.0441L52.1287 11.0404ZM30.3083 14.5549C26.4914 13.4102 22.6745 12.2692 18.8576 11.1245C22.6745 9.95063 26.4832 8.77671 30.296 7.60646C35.4539 8.88277 40.6078 10.1591 45.7658 11.4354C40.6119 12.474 35.4622 13.5163 30.3125 14.5585L30.3083 14.5549Z" fill="#1468E5"/>
<path d="M15.2966 19.2621C14.9541 18.9586 14.133 18.7172 13.5718 18.5856C13.1468 18.4978 12.7052 18.3845 12.305 18.4978C11.7397 18.7465 11.8676 19.4633 11.8139 20.3775C11.8057 21.2589 11.9006 22.2097 12.5773 22.8717C13.2375 23.486 14.7767 24.4734 15.3874 23.8042C15.5855 23.5592 15.6515 23.0801 15.6639 22.5023C15.6721 21.8843 15.6639 21.1711 15.6639 20.6189C15.6556 19.9716 15.6309 19.562 15.3255 19.2877L15.2966 19.2621Z" fill="#1468E5"/>
<path d="M16.9058 29.494C17.5825 29.9951 18.969 30.4814 19.918 30.401C20.5411 30.2108 20.4462 29.4648 20.5411 28.5286C20.5906 27.6399 20.5287 26.6745 19.8644 25.9906C19.1876 25.336 17.8796 24.4327 17.1203 24.835C16.7201 25.1275 16.6871 25.9321 16.6499 26.5611C16.6953 27.4827 16.3116 28.8248 16.8769 29.4684L16.9058 29.494Z" fill="#1468E5"/>
<path d="M24.3869 35.6485C24.9522 35.0048 24.5685 33.6627 24.6139 32.7411C24.5767 32.1121 24.5478 31.3112 24.1435 31.015C23.3842 30.609 22.0761 31.516 21.3994 32.1706C20.7351 32.8545 20.6732 33.8199 20.7227 34.7086C20.8217 35.6485 20.7227 36.3945 21.3458 36.581C22.2948 36.6615 23.6813 36.1751 24.358 35.6741L24.3869 35.6485Z" fill="#1468E5"/>
<path d="M43.6572 32.8107C43.0217 32.3024 40.4014 33.224 40.0755 33.9188C39.7866 34.3979 39.7825 34.9794 39.766 35.5206C39.7784 36.5519 39.6793 37.5942 40.0507 38.2488C40.5747 39.1155 42.9144 38.5706 43.5127 37.8282C43.9831 37.1919 43.9378 36.38 43.9708 35.6011C43.9584 34.8185 44.1111 33.2715 43.686 32.8363L43.6572 32.8107Z" fill="#1468E5"/>
<path d="M44.8126 30.4415C45.4481 30.9498 48.0683 30.0283 48.3943 29.3334C48.6832 28.8544 48.6873 28.2729 48.7038 27.7316C48.6914 26.7004 48.7905 25.6581 48.4191 25.0035C47.895 24.1368 45.5554 24.6817 44.957 25.424C44.4866 26.0604 44.532 26.8722 44.499 27.6512C44.5114 28.4338 44.3587 29.9807 44.7837 30.4159L44.8126 30.4415Z" fill="#1468E5"/>
<path d="M34.7154 11.0184C34.4802 10.7295 33.8777 10.6381 33.4857 10.5174C32.483 10.2614 31.505 9.97252 30.3332 10.0859C29.2108 10.1883 27.9564 10.5321 26.9083 10.7917C26.6029 10.8795 26.4378 10.9599 26.4461 11.0367C26.4791 11.1318 26.5823 11.1611 26.7061 11.2159C27.3044 11.4353 28.1132 11.6145 28.7693 11.7901C29.9205 12.0863 30.6798 12.3715 31.8187 12.0132C32.6109 11.7974 33.8736 11.578 34.5256 11.2854C34.6494 11.2196 34.7525 11.1538 34.7236 11.0367L34.7154 11.0148V11.0184Z" fill="#1468E5"/>
</svg>
