<svg width="36" height="36" viewBox="0 0 36 36" fill="none" xmlns="http://www.w3.org/2000/svg">
<path d="M0 10C0 4.47715 4.47715 0 10 0H26C31.5228 0 36 4.47715 36 10V26C36 31.5228 31.5228 36 26 36H10C4.47715 36 0 31.5228 0 26V10Z" fill="white"/>
<path d="M21.24 8.5H17.346C15.582 8.5 14.184 8.5 13.091 8.648C11.965 8.8 11.054 9.12 10.336 9.841C9.617 10.562 9.298 11.477 9.147 12.607C9 13.705 9 15.108 9 16.879V22.717C9 24.225 9.92 25.517 11.227 26.059C11.16 25.149 11.16 23.874 11.16 22.812V17.802C11.16 16.521 11.16 15.416 11.278 14.532C11.405 13.584 11.691 12.676 12.425 11.939C13.159 11.202 14.064 10.915 15.008 10.787C15.888 10.669 16.988 10.669 18.265 10.669H21.335C22.611 10.669 23.709 10.669 24.59 10.787C24.3261 10.1133 23.8653 9.53474 23.2678 9.12678C22.6702 8.71883 21.9635 8.50041 21.24 8.5Z" fill="#101930"/>
<path d="M12.5996 17.8973C12.5996 15.1713 12.5996 13.8083 13.4436 12.9613C14.2866 12.1143 15.6436 12.1143 18.3596 12.1143H21.2396C23.9546 12.1143 25.3126 12.1143 26.1566 12.9613C27.0006 13.8083 26.9996 15.1713 26.9996 17.8973V22.7173C26.9996 25.4433 26.9996 26.8063 26.1566 27.6533C25.3126 28.5003 23.9546 28.5003 21.2396 28.5003H18.3596C15.6446 28.5003 14.2866 28.5003 13.4436 27.6533C12.5996 26.8063 12.5996 25.4433 12.5996 22.7173V17.8973Z" fill="#101930"/>
</svg>
