<svg width="213" height="50" viewBox="0 0 213 50" fill="none" xmlns="http://www.w3.org/2000/svg">
<path d="M30.5394 18.8631C30.527 18.6144 30.3908 18.4425 30.3908 18.4425C30.2134 18.2194 29.9493 18.1499 29.8792 18.1317C27.9893 17.6562 9.79604 13.0849 8.45909 12.9204C8.29816 12.9021 7.86489 12.8472 7.55541 13.0557C7.24593 13.2714 7.21704 13.6554 7.20879 13.82C7.17165 14.6099 6.93645 23.7416 6.63935 36.256C6.6311 36.4352 6.63935 36.8448 6.91169 37.2873C7.20879 37.7627 7.64619 37.9968 7.82775 38.0845C14.7601 41.4271 21.6924 44.7769 28.6206 48.1231C28.7073 48.1451 29.3592 48.3243 29.9823 47.9842C30.527 47.6806 30.6549 47.1979 30.6714 47.1065C30.6137 31.0484 30.5641 19.269 30.5435 18.8631H30.5394ZM12.0202 32.7818C11.2898 27.2633 10.5635 21.7448 9.83317 16.2263C15.1727 17.5538 20.5081 18.885 25.8518 20.2162C25.9797 27.0951 26.1118 33.9777 26.2397 40.8602C21.5026 38.165 16.7614 35.4734 12.0243 32.7781L12.0202 32.7818Z" fill="#1A0089"/>
<path d="M57.0267 12.8948C57.0143 12.4522 56.7378 12.0463 56.3087 11.8342C55.6278 11.5014 54.9676 11.8488 54.9387 11.8671C53.8329 12.167 32.7058 17.9525 31.9094 18.2706C31.5174 18.4315 31.3647 18.6948 31.3647 18.6948C31.2615 18.8704 31.2491 19.0569 31.2574 19.1995L31.3564 44.989C31.3482 45.0768 31.3399 45.1609 31.3317 45.245L31.3812 46.4884L31.406 46.7883C31.3977 47.2454 31.604 47.6441 32.0208 47.9915C32.4375 48.3389 32.9451 48.5071 33.5434 48.4962C33.8034 48.5144 34.0303 48.5071 34.2201 48.4596L37.0756 47.9147C43.1496 46.664 49.2237 45.4133 55.2977 44.1625C55.3638 44.1516 56.09 44.0492 56.4036 43.4604C56.5975 43.0983 56.5315 42.7582 56.5026 42.6339L57.0226 12.8874L57.0267 12.8948ZM49.298 38.7026L38.2021 42.0671L35.9037 21.6644C41.2763 21.796 46.6447 21.9313 52.0131 22.063C51.1095 27.6107 50.2016 33.1548 49.298 38.7026Z" fill="#1A0089"/>
<path d="M52.1287 11.0406C52.0008 10.9638 51.8687 10.8907 51.7408 10.8176C44.8291 9.09875 37.9133 7.38725 31.0016 5.67209C22.5549 7.59204 8.52101 10.8066 8.08774 11.0626C7.85667 11.2016 7.85254 11.3295 7.85254 11.3369C7.85254 11.4393 7.96808 11.527 8.096 11.5892C19.7572 14.5075 28.1296 16.603 29.058 16.8956C29.2355 16.9504 29.9246 17.1881 30.7746 17.0675C31.1089 17.0199 31.3523 16.9358 31.406 16.9175C32.0579 16.6981 37.4016 15.4035 51.716 12.0756C51.8192 12.0427 52.0214 11.9622 52.1782 11.783C52.2442 11.7062 52.3598 11.5709 52.3391 11.3917C52.3226 11.2272 52.2029 11.1174 52.1245 11.0443L52.1287 11.0406ZM30.3083 14.5551C26.4914 13.4104 22.6745 12.2694 18.8576 11.1248C22.6745 9.95084 26.4832 8.77693 30.296 7.60667C35.4539 8.88298 40.6078 10.1593 45.7658 11.4356C40.6119 12.4742 35.4622 13.5165 30.3125 14.5587L30.3083 14.5551Z" fill="#1A0089"/>
<path d="M15.2966 19.2617C14.9541 18.9582 14.1329 18.7168 13.5717 18.5851C13.1467 18.4974 12.7052 18.384 12.3049 18.4974C11.7396 18.746 11.8675 19.4628 11.8139 20.3771C11.8056 21.2584 11.9005 22.2093 12.5773 22.8712C13.2375 23.4856 14.7766 24.473 15.3873 23.8037C15.5854 23.5587 15.6514 23.0796 15.6638 22.5018C15.6721 21.8838 15.6638 21.1707 15.6638 20.6185C15.6556 19.9712 15.6308 19.5616 15.3254 19.2873L15.2966 19.2617Z" fill="#1A0089"/>
<path d="M16.9058 29.4941C17.5825 29.9951 18.969 30.4815 19.9181 30.4011C20.5412 30.2109 20.4463 29.4649 20.5412 28.5286C20.5907 27.64 20.5288 26.6745 19.8644 25.9907C19.1877 25.336 17.8796 24.4327 17.1204 24.835C16.7201 25.1276 16.6871 25.9321 16.65 26.5612C16.6954 27.4827 16.3116 28.8249 16.8769 29.4685L16.9058 29.4941Z" fill="#1A0089"/>
<path d="M24.387 35.6489C24.9523 35.0053 24.5685 33.6632 24.6139 32.7416C24.5768 32.1126 24.5479 31.3117 24.1435 31.0155C23.3843 30.6095 22.0762 31.5165 21.3995 32.1711C20.7351 32.855 20.6732 33.8204 20.7227 34.7091C20.8218 35.6489 20.7227 36.395 21.3458 36.5815C22.2949 36.6619 23.6814 36.1756 24.3581 35.6745L24.387 35.6489Z" fill="#1A0089"/>
<path d="M43.6572 32.8111C43.0217 32.3027 40.4014 33.2243 40.0755 33.9192C39.7866 34.3982 39.7825 34.9797 39.766 35.5209C39.7784 36.5522 39.6793 37.5945 40.0507 38.2491C40.5747 39.1158 42.9144 38.5709 43.5127 37.8285C43.9831 37.1922 43.9378 36.3803 43.9708 35.6014C43.9584 34.8188 44.1111 33.2719 43.686 32.8367L43.6572 32.8111Z" fill="#1A0089"/>
<path d="M44.8126 30.4413C45.448 30.9496 48.0683 30.0281 48.3943 29.3332C48.6831 28.8541 48.6872 28.2727 48.7037 27.7314C48.6914 26.7001 48.7904 25.6579 48.419 25.0033C47.895 24.1365 45.5553 24.6814 44.957 25.4238C44.4866 26.0602 44.532 26.872 44.499 27.651C44.5113 28.4336 44.3587 29.9805 44.7837 30.4157L44.8126 30.4413Z" fill="#1A0089"/>
<path d="M34.7153 11.0187C34.4801 10.7298 33.8777 10.6384 33.4857 10.5177C32.4829 10.2617 31.505 9.97277 30.3331 10.0861C29.2107 10.1885 27.9563 10.5323 26.9082 10.7919C26.6028 10.8797 26.4378 10.9602 26.446 11.037C26.479 11.1321 26.5822 11.1613 26.706 11.2162C27.3043 11.4356 28.1131 11.6148 28.7692 11.7903C29.9205 12.0865 30.6797 12.3718 31.8186 12.0134C32.6109 11.7976 33.8735 11.5782 34.5255 11.2856C34.6493 11.2198 34.7525 11.154 34.7236 11.037L34.7153 11.015V11.0187Z" fill="#1A0089"/>
</svg>
