<svg width="485" height="58" viewBox="0 0 485 58" fill="none" xmlns="http://www.w3.org/2000/svg">
<g clip-path="url(#clip0_74_3110)">
<circle cx="55.1543" cy="16" r="15" fill="#1468E5" stroke="#1468E5" stroke-width="2"/>
</g>
<path d="M51.7321 19.642L61.3741 10L62.6543 11.2802L51.7321 22.2025L46.6538 17.1257L47.9341 15.8455L51.7321 19.642Z" fill="#F4FFFD"/>
<path d="M8.50795 48.8555H6.48593C6.449 48.5939 6.37359 48.3615 6.25972 48.1584C6.14585 47.9522 5.99966 47.7768 5.82116 47.6321C5.64265 47.4875 5.43645 47.3767 5.20255 47.2997C4.97172 47.2228 4.7209 47.1843 4.45006 47.1843C3.96072 47.1843 3.53446 47.3059 3.1713 47.549C2.80814 47.7891 2.52653 48.1399 2.32648 48.6016C2.12644 49.0601 2.02641 49.6172 2.02641 50.2727C2.02641 50.9467 2.12644 51.513 2.32648 51.9716C2.52961 52.4302 2.81275 52.7764 3.17591 53.0103C3.53908 53.2442 3.95918 53.3612 4.43621 53.3612C4.70397 53.3612 4.95172 53.3258 5.17947 53.255C5.41029 53.1842 5.61495 53.0811 5.79346 52.9457C5.97196 52.8072 6.11969 52.6394 6.23664 52.4425C6.35667 52.2455 6.43976 52.0208 6.48593 51.7685L8.50795 51.7777C8.45563 52.2116 8.32483 52.6302 8.11555 53.0334C7.90934 53.4335 7.63082 53.792 7.27996 54.109C6.93219 54.4229 6.51671 54.6722 6.03351 54.8569C5.5534 55.0385 5.01019 55.1293 4.4039 55.1293C3.56062 55.1293 2.8066 54.9384 2.14182 54.5568C1.48013 54.1752 0.956928 53.6228 0.572221 52.8995C0.190592 52.1763 -0.000221942 51.3007 -0.000221942 50.2727C-0.000221942 49.2417 0.19367 48.3646 0.581454 47.6413C0.969238 46.9181 1.49552 46.3672 2.16029 45.9886C2.82506 45.607 3.57293 45.4162 4.4039 45.4162C4.95172 45.4162 5.45953 45.4931 5.92734 45.647C6.39822 45.8009 6.81524 46.0256 7.1784 46.321C7.54156 46.6134 7.83702 46.9719 8.06476 47.3967C8.29559 47.8214 8.44332 48.3076 8.50795 48.8555ZM9.90443 55V47.9091H11.811V49.1463H11.8849C12.0142 48.7062 12.2311 48.3738 12.5358 48.1491C12.8405 47.9214 13.1914 47.8075 13.5884 47.8075C13.6869 47.8075 13.793 47.8137 13.9069 47.826C14.0208 47.8383 14.1208 47.8552 14.207 47.8768V49.6218C14.1147 49.5941 13.9869 49.5695 13.8238 49.5479C13.6607 49.5264 13.5114 49.5156 13.376 49.5156C13.0867 49.5156 12.8282 49.5787 12.6005 49.7049C12.3758 49.828 12.1973 50.0004 12.0649 50.2219C11.9357 50.4435 11.871 50.699 11.871 50.9883V55H9.90443ZM18.1252 55.1385C17.3958 55.1385 16.768 54.9908 16.2417 54.6953C15.7185 54.3968 15.3153 53.9751 15.0322 53.4304C14.749 52.8826 14.6075 52.2347 14.6075 51.4869C14.6075 50.7575 14.749 50.1173 15.0322 49.5664C15.3153 49.0155 15.7139 48.5862 16.2278 48.2784C16.7449 47.9706 17.3512 47.8168 18.0467 47.8168C18.5145 47.8168 18.95 47.8922 19.3532 48.043C19.7595 48.1907 20.1134 48.4138 20.415 48.7124C20.7197 49.0109 20.9567 49.3864 21.1259 49.8388C21.2952 50.2881 21.3798 50.8144 21.3798 51.4176V51.9577H15.3923V50.739H19.5286C19.5286 50.4558 19.4671 50.205 19.344 49.9865C19.2209 49.768 19.0501 49.5972 18.8315 49.4741C18.6161 49.3479 18.3653 49.2848 18.0791 49.2848C17.7805 49.2848 17.5158 49.354 17.285 49.4925C17.0573 49.628 16.8788 49.8111 16.7495 50.0419C16.6203 50.2696 16.5541 50.5236 16.551 50.8036V51.9624C16.551 52.3132 16.6156 52.6164 16.7449 52.8718C16.8772 53.1272 17.0634 53.3242 17.3035 53.4627C17.5435 53.6012 17.8282 53.6705 18.1575 53.6705C18.3761 53.6705 18.5761 53.6397 18.7577 53.5781C18.9393 53.5166 19.0947 53.4242 19.2239 53.3011C19.3532 53.178 19.4517 53.0272 19.5194 52.8487L21.3383 52.9688C21.246 53.4058 21.0567 53.7874 20.7705 54.1136C20.4873 54.4368 20.1211 54.6892 19.6717 54.8707C19.2255 55.0492 18.71 55.1385 18.1252 55.1385ZM17.2943 46.995L18.2729 44.8945H20.0918L18.6838 46.995H17.2943ZM25.8948 55.1385C25.1653 55.1385 24.5375 54.9908 24.0112 54.6953C23.488 54.3968 23.0849 53.9751 22.8017 53.4304C22.5186 52.8826 22.377 52.2347 22.377 51.4869C22.377 50.7575 22.5186 50.1173 22.8017 49.5664C23.0849 49.0155 23.4834 48.5862 23.9974 48.2784C24.5144 47.9706 25.1207 47.8168 25.8163 47.8168C26.2841 47.8168 26.7196 47.8922 27.1227 48.043C27.529 48.1907 27.8829 48.4138 28.1845 48.7124C28.4892 49.0109 28.7262 49.3864 28.8955 49.8388C29.0647 50.2881 29.1494 50.8144 29.1494 51.4176V51.9577H23.1618V50.739H27.2982C27.2982 50.4558 27.2366 50.205 27.1135 49.9865C26.9904 49.768 26.8196 49.5972 26.6011 49.4741C26.3856 49.3479 26.1348 49.2848 25.8486 49.2848C25.5501 49.2848 25.2854 49.354 25.0546 49.4925C24.8268 49.628 24.6483 49.8111 24.519 50.0419C24.3898 50.2696 24.3236 50.5236 24.3205 50.8036V51.9624C24.3205 52.3132 24.3852 52.6164 24.5144 52.8718C24.6468 53.1272 24.833 53.3242 25.073 53.4627C25.3131 53.6012 25.5978 53.6705 25.9271 53.6705C26.1456 53.6705 26.3456 53.6397 26.5272 53.5781C26.7088 53.5166 26.8642 53.4242 26.9935 53.3011C27.1227 53.178 27.2212 53.0272 27.2889 52.8487L29.1078 52.9688C29.0155 53.4058 28.8262 53.7874 28.54 54.1136C28.2569 54.4368 27.8906 54.6892 27.4413 54.8707C26.995 55.0492 26.4795 55.1385 25.8948 55.1385ZM30.4328 55V47.9091H32.3394V49.1463H32.4132C32.5425 48.7062 32.7595 48.3738 33.0641 48.1491C33.3688 47.9214 33.7197 47.8075 34.1167 47.8075C34.2152 47.8075 34.3214 47.8137 34.4352 47.826C34.5491 47.8383 34.6491 47.8552 34.7353 47.8768V49.6218C34.643 49.5941 34.5153 49.5695 34.3521 49.5479C34.189 49.5264 34.0398 49.5156 33.9043 49.5156C33.615 49.5156 33.3565 49.5787 33.1288 49.7049C32.9041 49.828 32.7256 50.0004 32.5933 50.2219C32.464 50.4435 32.3994 50.699 32.3994 50.9883V55H30.4328ZM45.3717 47.9091L42.8926 55H40.6767L38.1977 47.9091H40.2751L41.7477 52.9826H41.8216L43.2896 47.9091H45.3717ZM49.3534 55.1385C48.6363 55.1385 48.0161 54.9862 47.4929 54.6815C46.9728 54.3737 46.5712 53.9459 46.288 53.3981C46.0049 52.8472 45.8633 52.2086 45.8633 51.4822C45.8633 50.7498 46.0049 50.1096 46.288 49.5618C46.5712 49.0109 46.9728 48.5831 47.4929 48.2784C48.0161 47.9706 48.6363 47.8168 49.3534 47.8168C50.0705 47.8168 50.6891 47.9706 51.2092 48.2784C51.7324 48.5831 52.1356 49.0109 52.4187 49.5618C52.7019 50.1096 52.8434 50.7498 52.8434 51.4822C52.8434 52.2086 52.7019 52.8472 52.4187 53.3981C52.1356 53.9459 51.7324 54.3737 51.2092 54.6815C50.6891 54.9862 50.0705 55.1385 49.3534 55.1385ZM49.3626 53.6151C49.6888 53.6151 49.9612 53.5227 50.1797 53.3381C50.3982 53.1503 50.5629 52.8949 50.6737 52.5717C50.7876 52.2486 50.8445 51.8808 50.8445 51.4684C50.8445 51.056 50.7876 50.6882 50.6737 50.3651C50.5629 50.0419 50.3982 49.7865 50.1797 49.5987C49.9612 49.411 49.6888 49.3171 49.3626 49.3171C49.0333 49.3171 48.7563 49.411 48.5316 49.5987C48.3101 49.7865 48.1423 50.0419 48.0285 50.3651C47.9177 50.6882 47.8623 51.056 47.8623 51.4684C47.8623 51.8808 47.9177 52.2486 48.0285 52.5717C48.1423 52.8949 48.3101 53.1503 48.5316 53.3381C48.7563 53.5227 49.0333 53.6151 49.3626 53.6151ZM57.8939 47.9091V49.3864H53.6236V47.9091H57.8939ZM54.5931 46.2102H56.5597V52.821C56.5597 53.0026 56.5874 53.1442 56.6428 53.2457C56.6982 53.3442 56.7751 53.4135 56.8736 53.4535C56.9752 53.4935 57.0921 53.5135 57.2245 53.5135C57.3168 53.5135 57.4091 53.5058 57.5015 53.4904C57.5938 53.4719 57.6646 53.4581 57.7138 53.4489L58.0231 54.9123C57.9246 54.9431 57.7861 54.9785 57.6076 55.0185C57.4291 55.0616 57.2122 55.0877 56.9567 55.0969C56.4828 55.1154 56.0673 55.0523 55.7103 54.9077C55.3563 54.763 55.0809 54.5384 54.8839 54.2337C54.687 53.929 54.59 53.5443 54.5931 53.0795V46.2102ZM59.1749 55V47.9091H61.0815V49.1463H61.1554C61.2847 48.7062 61.5016 48.3738 61.8063 48.1491C62.111 47.9214 62.4619 47.8075 62.8589 47.8075C62.9574 47.8075 63.0636 47.8137 63.1774 47.826C63.2913 47.8383 63.3913 47.8552 63.4775 47.8768V49.6218C63.3852 49.5941 63.2574 49.5695 63.0943 49.5479C62.9312 49.5264 62.7819 49.5156 62.6465 49.5156C62.3572 49.5156 62.0987 49.5787 61.871 49.7049C61.6463 49.828 61.4678 50.0004 61.3354 50.2219C61.2062 50.4435 61.1416 50.699 61.1416 50.9883V55H59.1749ZM67.3957 55.1385C66.6663 55.1385 66.0385 54.9908 65.5122 54.6953C64.989 54.3968 64.5858 53.9751 64.3027 53.4304C64.0195 52.8826 63.878 52.2347 63.878 51.4869C63.878 50.7575 64.0195 50.1173 64.3027 49.5664C64.5858 49.0155 64.9844 48.5862 65.4984 48.2784C66.0154 47.9706 66.6217 47.8168 67.3172 47.8168C67.7851 47.8168 68.2205 47.8922 68.6237 48.043C69.03 48.1907 69.3839 48.4138 69.6855 48.7124C69.9902 49.0109 70.2272 49.3864 70.3964 49.8388C70.5657 50.2881 70.6503 50.8144 70.6503 51.4176V51.9577H64.6628V50.739H68.7991C68.7991 50.4558 68.7376 50.205 68.6145 49.9865C68.4914 49.768 68.3206 49.5972 68.1021 49.4741C67.8866 49.3479 67.6358 49.2848 67.3496 49.2848C67.051 49.2848 66.7864 49.354 66.5555 49.4925C66.3278 49.628 66.1493 49.8111 66.02 50.0419C65.8908 50.2696 65.8246 50.5236 65.8215 50.8036V51.9624C65.8215 52.3132 65.8861 52.6164 66.0154 52.8718C66.1477 53.1272 66.3339 53.3242 66.574 53.4627C66.8141 53.6012 67.0987 53.6705 67.428 53.6705C67.6466 53.6705 67.8466 53.6397 68.0282 53.5781C68.2098 53.5166 68.3652 53.4242 68.4945 53.3011C68.6237 53.178 68.7222 53.0272 68.7899 52.8487L70.6088 52.9688C70.5165 53.4058 70.3272 53.7874 70.041 54.1136C69.7578 54.4368 69.3916 54.6892 68.9422 54.8707C68.496 55.0492 67.9805 55.1385 67.3957 55.1385ZM74.9425 57.6591V47.9091H76.8814V49.1001H76.9691C77.0553 48.9093 77.18 48.7154 77.3431 48.5185C77.5093 48.3184 77.7247 48.1522 77.9894 48.0199C78.2571 47.8845 78.5895 47.8168 78.9866 47.8168C79.5036 47.8168 79.9806 47.9522 80.4177 48.223C80.8547 48.4908 81.204 48.8955 81.4656 49.4371C81.7272 49.9757 81.858 50.6513 81.858 51.4638C81.858 52.2547 81.7303 52.9226 81.4748 53.4673C81.2225 54.009 80.8778 54.4199 80.4407 54.6999C80.0068 54.9769 79.5205 55.1154 78.9819 55.1154C78.6003 55.1154 78.2756 55.0523 78.0079 54.9261C77.7432 54.8 77.5262 54.6415 77.3569 54.4506C77.1877 54.2567 77.0584 54.0613 76.9691 53.8643H76.9091V57.6591H74.9425ZM76.8676 51.4545C76.8676 51.8762 76.9261 52.244 77.043 52.5579C77.16 52.8718 77.3292 53.1165 77.5508 53.2919C77.7724 53.4643 78.0417 53.5504 78.3587 53.5504C78.6788 53.5504 78.9496 53.4627 79.1712 53.2873C79.3928 53.1088 79.5605 52.8626 79.6744 52.5487C79.7914 52.2317 79.8498 51.867 79.8498 51.4545C79.8498 51.0452 79.7929 50.6851 79.679 50.3743C79.5651 50.0634 79.3974 49.8203 79.1758 49.6449C78.9542 49.4695 78.6819 49.3817 78.3587 49.3817C78.0386 49.3817 77.7678 49.4664 77.5462 49.6357C77.3277 49.8049 77.16 50.045 77.043 50.3558C76.9261 50.6667 76.8676 51.0329 76.8676 51.4545ZM85.1911 55.1339C84.7387 55.1339 84.3355 55.0554 83.9816 54.8984C83.6276 54.7384 83.3476 54.503 83.1414 54.1921C82.9383 53.8782 82.8367 53.4873 82.8367 53.0195C82.8367 52.6256 82.909 52.2947 83.0537 52.027C83.1983 51.7592 83.3953 51.5438 83.6446 51.3807C83.8939 51.2176 84.177 51.0945 84.494 51.0114C84.8141 50.9283 85.1495 50.8698 85.5004 50.8359C85.9128 50.7929 86.2452 50.7528 86.4976 50.7159C86.7499 50.6759 86.933 50.6174 87.0469 50.5405C87.1608 50.4635 87.2177 50.3497 87.2177 50.1989V50.1712C87.2177 49.8788 87.1254 49.6526 86.9407 49.4925C86.7592 49.3325 86.5006 49.2525 86.1652 49.2525C85.8112 49.2525 85.5296 49.331 85.3204 49.4879C85.1111 49.6418 84.9726 49.8357 84.9049 50.0696L83.086 49.9219C83.1783 49.491 83.3599 49.1186 83.6307 48.8047C83.9016 48.4877 84.2509 48.2446 84.6787 48.0753C85.1095 47.9029 85.6081 47.8168 86.1744 47.8168C86.5683 47.8168 86.9454 47.8629 87.3054 47.9553C87.6686 48.0476 87.9902 48.1907 88.2703 48.3846C88.5534 48.5785 88.7766 48.8278 88.9397 49.1325C89.1028 49.4341 89.1843 49.7957 89.1843 50.2173V55H87.3193V54.0167H87.2639C87.15 54.2383 86.9977 54.4337 86.8069 54.603C86.616 54.7692 86.3868 54.9 86.119 54.9954C85.8513 55.0877 85.5419 55.1339 85.1911 55.1339ZM85.7543 53.7766C86.0436 53.7766 86.2991 53.7197 86.5206 53.6058C86.7422 53.4889 86.9161 53.3319 87.0423 53.1349C87.1685 52.938 87.2316 52.7148 87.2316 52.4656V51.7131C87.17 51.7531 87.0854 51.79 86.9777 51.8239C86.873 51.8546 86.7545 51.8839 86.6222 51.9116C86.4899 51.9362 86.3575 51.9593 86.2252 51.9808C86.0928 51.9993 85.9728 52.0162 85.8651 52.0316C85.6343 52.0655 85.4327 52.1193 85.2603 52.1932C85.088 52.267 84.9541 52.3671 84.8587 52.4933C84.7633 52.6164 84.7156 52.7702 84.7156 52.9549C84.7156 53.2227 84.8125 53.4273 85.0064 53.5689C85.2034 53.7074 85.4527 53.7766 85.7543 53.7766ZM90.7101 55V47.9091H92.6167V49.1463H92.6906C92.8198 48.7062 93.0368 48.3738 93.3415 48.1491C93.6462 47.9214 93.997 47.8075 94.394 47.8075C94.4925 47.8075 94.5987 47.8137 94.7126 47.826C94.8265 47.8383 94.9265 47.8552 95.0127 47.8768V49.6218C94.9203 49.5941 94.7926 49.5695 94.6295 49.5479C94.4664 49.5264 94.3171 49.5156 94.1817 49.5156C93.8924 49.5156 93.6339 49.5787 93.4061 49.7049C93.1814 49.828 93.0029 50.0004 92.8706 50.2219C92.7413 50.4435 92.6767 50.699 92.6767 50.9883V55H90.7101ZM100.157 47.9091V49.3864H95.8863V47.9091H100.157ZM96.8558 46.2102H98.8224V52.821C98.8224 53.0026 98.8501 53.1442 98.9055 53.2457C98.9609 53.3442 99.0378 53.4135 99.1363 53.4535C99.2379 53.4935 99.3548 53.5135 99.4872 53.5135C99.5795 53.5135 99.6718 53.5058 99.7642 53.4904C99.8565 53.4719 99.9273 53.4581 99.9765 53.4489L100.286 54.9123C100.187 54.9431 100.049 54.9785 99.8703 55.0185C99.6918 55.0616 99.4749 55.0877 99.2194 55.0969C98.7455 55.1154 98.33 55.0523 97.973 54.9077C97.619 54.763 97.3436 54.5384 97.1466 54.2337C96.9496 53.929 96.8527 53.5443 96.8558 53.0795V46.2102ZM101.438 55V47.9091H103.404V55H101.438ZM102.426 46.995C102.133 46.995 101.882 46.8981 101.673 46.7042C101.467 46.5072 101.364 46.2718 101.364 45.9979C101.364 45.727 101.467 45.4947 101.673 45.3008C101.882 45.1038 102.133 45.0053 102.426 45.0053C102.718 45.0053 102.967 45.1038 103.173 45.3008C103.383 45.4947 103.487 45.727 103.487 45.9979C103.487 46.2718 103.383 46.5072 103.173 46.7042C102.967 46.8981 102.718 46.995 102.426 46.995ZM108.211 55.1385C107.482 55.1385 106.854 54.9908 106.328 54.6953C105.804 54.3968 105.401 53.9751 105.118 53.4304C104.835 52.8826 104.693 52.2347 104.693 51.4869C104.693 50.7575 104.835 50.1173 105.118 49.5664C105.401 49.0155 105.8 48.5862 106.314 48.2784C106.831 47.9706 107.437 47.8168 108.133 47.8168C108.6 47.8168 109.036 47.8922 109.439 48.043C109.845 48.1907 110.199 48.4138 110.501 48.7124C110.806 49.0109 111.043 49.3864 111.212 49.8388C111.381 50.2881 111.466 50.8144 111.466 51.4176V51.9577H105.478V50.739H109.615C109.615 50.4558 109.553 50.205 109.43 49.9865C109.307 49.768 109.136 49.5972 108.917 49.4741C108.702 49.3479 108.451 49.2848 108.165 49.2848C107.866 49.2848 107.602 49.354 107.371 49.4925C107.143 49.628 106.965 49.8111 106.835 50.0419C106.706 50.2696 106.64 50.5236 106.637 50.8036V51.9624C106.637 52.3132 106.702 52.6164 106.831 52.8718C106.963 53.1272 107.149 53.3242 107.389 53.4627C107.629 53.6012 107.914 53.6705 108.243 53.6705C108.462 53.6705 108.662 53.6397 108.844 53.5781C109.025 53.5166 109.181 53.4242 109.31 53.3011C109.439 53.178 109.538 53.0272 109.605 52.8487L111.424 52.9688C111.332 53.4058 111.143 53.7874 110.856 54.1136C110.573 54.4368 110.207 54.6892 109.758 54.8707C109.311 55.0492 108.796 55.1385 108.211 55.1385Z" fill="#1468E5"/>
<rect x="79.1543" y="15" width="156" height="2" fill="#1468E5"/>
<g clip-path="url(#clip1_74_3110)">
<circle cx="259.154" cy="16" r="16" fill="#F4FFFD"/>
<circle cx="259.154" cy="16" r="15" stroke="#1468E5" stroke-opacity="0.5" stroke-width="2"/>
<path d="M255.577 20.5V19.4659L258.777 16.1513C259.118 15.7912 259.4 15.4757 259.621 15.2049C259.846 14.931 260.014 14.6709 260.125 14.4247C260.235 14.1785 260.291 13.9169 260.291 13.6399C260.291 13.326 260.217 13.0552 260.069 12.8274C259.922 12.5966 259.72 12.4196 259.464 12.2965C259.209 12.1703 258.921 12.1072 258.601 12.1072C258.263 12.1072 257.967 12.1765 257.715 12.315C257.462 12.4535 257.269 12.6489 257.133 12.9013C256.998 13.1536 256.93 13.4491 256.93 13.7876H255.568C255.568 13.2121 255.701 12.7089 255.965 12.2781C256.23 11.8472 256.593 11.5133 257.055 11.2763C257.516 11.0362 258.041 10.9162 258.629 10.9162C259.223 10.9162 259.746 11.0347 260.199 11.2717C260.654 11.5056 261.009 11.8256 261.265 12.2319C261.52 12.6351 261.648 13.0906 261.648 13.5984C261.648 13.9492 261.582 14.2924 261.45 14.6278C261.32 14.9633 261.094 15.3372 260.771 15.7496C260.448 16.159 259.998 16.656 259.423 17.2408L257.544 19.2074V19.2766H261.8V20.5H255.577Z" fill="#1468E5" fill-opacity="0.5"/>
</g>
<path d="M188.941 55H187.427L190.829 45.5455H192.477L195.879 55H194.365L191.692 47.2628H191.618L188.941 55ZM189.195 51.2976H194.107V52.4979H189.195V51.2976ZM200 47.9091V49.017H196.126V47.9091H200ZM197.165 46.2102H198.545V52.918C198.545 53.1857 198.585 53.3873 198.665 53.5227C198.746 53.6551 198.849 53.7459 198.975 53.7951C199.104 53.8413 199.244 53.8643 199.395 53.8643C199.506 53.8643 199.603 53.8567 199.686 53.8413C199.769 53.8259 199.833 53.8136 199.88 53.8043L200.129 54.9446C200.049 54.9754 199.935 55.0062 199.787 55.0369C199.64 55.0708 199.455 55.0893 199.233 55.0923C198.87 55.0985 198.532 55.0339 198.218 54.8984C197.904 54.763 197.65 54.5537 197.456 54.2706C197.262 53.9875 197.165 53.632 197.165 53.2042V46.2102ZM204.837 47.9091V49.017H200.963V47.9091H204.837ZM202.002 46.2102H203.382V52.918C203.382 53.1857 203.422 53.3873 203.502 53.5227C203.582 53.6551 203.686 53.7459 203.812 53.7951C203.941 53.8413 204.081 53.8643 204.232 53.8643C204.343 53.8643 204.44 53.8567 204.523 53.8413C204.606 53.8259 204.67 53.8136 204.717 53.8043L204.966 54.9446C204.886 54.9754 204.772 55.0062 204.624 55.0369C204.476 55.0708 204.292 55.0893 204.07 55.0923C203.707 55.0985 203.369 55.0339 203.055 54.8984C202.741 54.763 202.487 54.5537 202.293 54.2706C202.099 53.9875 202.002 53.632 202.002 53.2042V46.2102ZM209.343 55.1431C208.645 55.1431 208.043 54.9938 207.538 54.6953C207.037 54.3937 206.649 53.9705 206.375 53.4258C206.104 52.878 205.969 52.2363 205.969 51.5007C205.969 50.7744 206.104 50.1342 206.375 49.5803C206.649 49.0263 207.031 48.5939 207.52 48.283C208.012 47.9722 208.588 47.8168 209.246 47.8168C209.647 47.8168 210.034 47.8829 210.41 48.0153C210.785 48.1476 211.122 48.3554 211.421 48.6385C211.719 48.9216 211.955 49.2894 212.127 49.7418C212.299 50.1912 212.386 50.7375 212.386 51.3807V51.87H206.749V50.8359H211.033C211.033 50.4728 210.959 50.1512 210.811 49.8711C210.664 49.5879 210.456 49.3648 210.188 49.2017C209.924 49.0386 209.613 48.957 209.256 48.957C208.868 48.957 208.529 49.0524 208.24 49.2433C207.954 49.431 207.732 49.6772 207.575 49.9819C207.421 50.2835 207.344 50.6113 207.344 50.9652V51.7731C207.344 52.247 207.428 52.6502 207.594 52.9826C207.763 53.315 207.998 53.5689 208.3 53.7443C208.602 53.9167 208.954 54.0028 209.357 54.0028C209.619 54.0028 209.857 53.9659 210.073 53.892C210.288 53.8151 210.474 53.7012 210.631 53.5504C210.788 53.3996 210.908 53.2134 210.991 52.9918L212.298 53.2273C212.193 53.612 212.006 53.949 211.735 54.2383C211.467 54.5245 211.13 54.7476 210.724 54.9077C210.321 55.0646 209.86 55.1431 209.343 55.1431ZM215.297 50.7898V55H213.917V47.9091H215.242V49.0632H215.33C215.493 48.6877 215.748 48.3861 216.096 48.1584C216.447 47.9306 216.889 47.8168 217.421 47.8168C217.904 47.8168 218.327 47.9183 218.691 48.1214C219.054 48.3215 219.335 48.62 219.535 49.017C219.735 49.4141 219.835 49.9049 219.835 50.4897V55H218.455V50.6559C218.455 50.1419 218.321 49.7403 218.054 49.451C217.786 49.1586 217.418 49.0124 216.95 49.0124C216.63 49.0124 216.345 49.0817 216.096 49.2202C215.85 49.3587 215.655 49.5618 215.51 49.8295C215.368 50.0942 215.297 50.4143 215.297 50.7898ZM224.997 47.9091V49.017H221.123V47.9091H224.997ZM222.162 46.2102H223.543V52.918C223.543 53.1857 223.583 53.3873 223.663 53.5227C223.743 53.6551 223.846 53.7459 223.972 53.7951C224.101 53.8413 224.241 53.8643 224.392 53.8643C224.503 53.8643 224.6 53.8567 224.683 53.8413C224.766 53.8259 224.831 53.8136 224.877 53.8043L225.126 54.9446C225.046 54.9754 224.932 55.0062 224.784 55.0369C224.637 55.0708 224.452 55.0893 224.23 55.0923C223.867 55.0985 223.529 55.0339 223.215 54.8984C222.901 54.763 222.647 54.5537 222.453 54.2706C222.259 53.9875 222.162 53.632 222.162 53.2042V46.2102ZM229.504 55.1431C228.805 55.1431 228.203 54.9938 227.699 54.6953C227.197 54.3937 226.809 53.9705 226.535 53.4258C226.264 52.878 226.129 52.2363 226.129 51.5007C226.129 50.7744 226.264 50.1342 226.535 49.5803C226.809 49.0263 227.191 48.5939 227.68 48.283C228.172 47.9722 228.748 47.8168 229.407 47.8168C229.807 47.8168 230.194 47.8829 230.57 48.0153C230.945 48.1476 231.282 48.3554 231.581 48.6385C231.879 48.9216 232.115 49.2894 232.287 49.7418C232.46 50.1912 232.546 50.7375 232.546 51.3807V51.87H226.909V50.8359H231.193C231.193 50.4728 231.119 50.1512 230.972 49.8711C230.824 49.5879 230.616 49.3648 230.348 49.2017C230.084 49.0386 229.773 48.957 229.416 48.957C229.028 48.957 228.69 49.0524 228.4 49.2433C228.114 49.431 227.892 49.6772 227.735 49.9819C227.582 50.2835 227.505 50.6113 227.505 50.9652V51.7731C227.505 52.247 227.588 52.6502 227.754 52.9826C227.923 53.315 228.159 53.5689 228.46 53.7443C228.762 53.9167 229.114 54.0028 229.517 54.0028C229.779 54.0028 230.018 53.9659 230.233 53.892C230.448 53.8151 230.635 53.7012 230.792 53.5504C230.949 53.3996 231.069 53.2134 231.152 52.9918L232.458 53.2273C232.353 53.612 232.166 53.949 231.895 54.2383C231.627 54.5245 231.29 54.7476 230.884 54.9077C230.481 55.0646 230.021 55.1431 229.504 55.1431ZM240.172 55.1385C239.6 55.1385 239.089 54.9923 238.64 54.6999C238.193 54.4045 237.842 53.9844 237.587 53.4396C237.335 52.8918 237.208 52.2347 237.208 51.4684C237.208 50.7021 237.336 50.0465 237.592 49.5018C237.85 48.957 238.204 48.54 238.653 48.2507C239.103 47.9614 239.612 47.8168 240.181 47.8168C240.622 47.8168 240.975 47.8906 241.243 48.0384C241.514 48.183 241.723 48.3523 241.871 48.5462C242.022 48.7401 242.139 48.9109 242.222 49.0586H242.305V45.5455H243.685V55H242.337V53.8967H242.222C242.139 54.0475 242.019 54.2198 241.862 54.4137C241.708 54.6076 241.496 54.7769 241.225 54.9215C240.954 55.0662 240.603 55.1385 240.172 55.1385ZM240.477 53.9613C240.874 53.9613 241.209 53.8567 241.483 53.6474C241.76 53.435 241.97 53.1411 242.111 52.7656C242.256 52.3902 242.328 51.9531 242.328 51.4545C242.328 50.9621 242.257 50.5312 242.116 50.1619C241.974 49.7926 241.766 49.5049 241.493 49.2987C241.219 49.0924 240.88 48.9893 240.477 48.9893C240.061 48.9893 239.715 49.0971 239.438 49.3125C239.161 49.5279 238.952 49.8219 238.81 50.1942C238.672 50.5666 238.603 50.9867 238.603 51.4545C238.603 51.9285 238.673 52.3548 238.815 52.7333C238.957 53.1119 239.166 53.4119 239.443 53.6335C239.723 53.852 240.068 53.9613 240.477 53.9613ZM248.712 55.1431C248.013 55.1431 247.411 54.9938 246.907 54.6953C246.405 54.3937 246.017 53.9705 245.743 53.4258C245.472 52.878 245.337 52.2363 245.337 51.5007C245.337 50.7744 245.472 50.1342 245.743 49.5803C246.017 49.0263 246.399 48.5939 246.888 48.283C247.38 47.9722 247.956 47.8168 248.615 47.8168C249.015 47.8168 249.402 47.8829 249.778 48.0153C250.153 48.1476 250.49 48.3554 250.789 48.6385C251.088 48.9216 251.323 49.2894 251.495 49.7418C251.668 50.1912 251.754 50.7375 251.754 51.3807V51.87H246.117V50.8359H250.401C250.401 50.4728 250.327 50.1512 250.18 49.8711C250.032 49.5879 249.824 49.3648 249.556 49.2017C249.292 49.0386 248.981 48.957 248.624 48.957C248.236 48.957 247.898 49.0524 247.608 49.2433C247.322 49.431 247.1 49.6772 246.943 49.9819C246.79 50.2835 246.713 50.6113 246.713 50.9652V51.7731C246.713 52.247 246.796 52.6502 246.962 52.9826C247.131 53.315 247.367 53.5689 247.668 53.7443C247.97 53.9167 248.322 54.0028 248.725 54.0028C248.987 54.0028 249.226 53.9659 249.441 53.892C249.656 53.8151 249.843 53.7012 250 53.5504C250.157 53.3996 250.277 53.2134 250.36 52.9918L251.666 53.2273C251.561 53.612 251.374 53.949 251.103 54.2383C250.835 54.5245 250.498 54.7476 250.092 54.9077C249.689 55.0646 249.229 55.1431 248.712 55.1431ZM256.726 57.6591V47.9091H258.074V49.0586H258.189C258.269 48.9109 258.385 48.7401 258.535 48.5462C258.686 48.3523 258.896 48.183 259.163 48.0384C259.431 47.8906 259.785 47.8168 260.225 47.8168C260.797 47.8168 261.308 47.9614 261.758 48.2507C262.207 48.54 262.559 48.957 262.815 49.5018C263.073 50.0465 263.203 50.7021 263.203 51.4684C263.203 52.2347 263.075 52.8918 262.82 53.4396C262.564 53.9844 262.213 54.4045 261.767 54.6999C261.321 54.9923 260.811 55.1385 260.239 55.1385C259.808 55.1385 259.456 55.0662 259.182 54.9215C258.911 54.7769 258.699 54.6076 258.545 54.4137C258.391 54.2198 258.272 54.0475 258.189 53.8967H258.106V57.6591H256.726ZM258.078 51.4545C258.078 51.9531 258.151 52.3902 258.295 52.7656C258.44 53.1411 258.649 53.435 258.923 53.6474C259.197 53.8567 259.533 53.9613 259.93 53.9613C260.342 53.9613 260.687 53.852 260.964 53.6335C261.241 53.4119 261.45 53.1119 261.592 52.7333C261.736 52.3548 261.809 51.9285 261.809 51.4545C261.809 50.9867 261.738 50.5666 261.596 50.1942C261.458 49.8219 261.248 49.5279 260.968 49.3125C260.691 49.0971 260.345 48.9893 259.93 48.9893C259.53 48.9893 259.191 49.0924 258.914 49.2987C258.64 49.5049 258.432 49.7926 258.291 50.1619C258.149 50.5312 258.078 50.9621 258.078 51.4545ZM266.813 55.157C266.363 55.157 265.957 55.0739 265.594 54.9077C265.231 54.7384 264.943 54.4937 264.731 54.1737C264.521 53.8536 264.417 53.4612 264.417 52.9964C264.417 52.5964 264.494 52.267 264.648 52.0085C264.802 51.75 265.009 51.5453 265.271 51.3945C265.532 51.2437 265.825 51.1299 266.148 51.0529C266.471 50.976 266.8 50.9175 267.136 50.8775C267.561 50.8282 267.905 50.7882 268.17 50.7575C268.435 50.7236 268.627 50.6697 268.747 50.5959C268.867 50.522 268.927 50.402 268.927 50.2358V50.2035C268.927 49.8003 268.813 49.4879 268.585 49.2663C268.361 49.0447 268.025 48.9339 267.579 48.9339C267.114 48.9339 266.748 49.037 266.48 49.2433C266.216 49.4464 266.033 49.6726 265.931 49.9219L264.634 49.6264C264.788 49.1955 265.012 48.8478 265.308 48.5831C265.606 48.3153 265.949 48.1214 266.337 48.0014C266.725 47.8783 267.133 47.8168 267.561 47.8168C267.844 47.8168 268.144 47.8506 268.461 47.9183C268.781 47.983 269.079 48.103 269.356 48.2784C269.637 48.4538 269.866 48.7047 270.044 49.0309C270.223 49.354 270.312 49.7741 270.312 50.2912V55H268.964V54.0305H268.909C268.819 54.209 268.686 54.3845 268.507 54.5568C268.329 54.7292 268.099 54.8723 267.819 54.9862C267.539 55.1 267.204 55.157 266.813 55.157ZM267.113 54.049C267.494 54.049 267.821 53.9736 268.092 53.8228C268.365 53.672 268.573 53.475 268.715 53.2319C268.859 52.9857 268.932 52.7225 268.932 52.4425V51.5284C268.882 51.5777 268.787 51.6238 268.646 51.6669C268.507 51.7069 268.349 51.7423 268.17 51.7731C267.992 51.8008 267.818 51.8269 267.648 51.8516C267.479 51.8731 267.338 51.8916 267.224 51.907C266.956 51.9408 266.711 51.9978 266.49 52.0778C266.271 52.1578 266.096 52.2732 265.963 52.424C265.834 52.5717 265.769 52.7687 265.769 53.0149C265.769 53.3565 265.896 53.6151 266.148 53.7905C266.4 53.9628 266.722 54.049 267.113 54.049ZM272.151 55V47.9091H273.485V49.0355H273.559C273.688 48.6539 273.916 48.3538 274.242 48.1353C274.571 47.9137 274.944 47.8029 275.359 47.8029C275.445 47.8029 275.547 47.806 275.664 47.8121C275.784 47.8183 275.878 47.826 275.945 47.8352V49.1555C275.89 49.1402 275.791 49.1232 275.65 49.1048C275.508 49.0832 275.367 49.0724 275.225 49.0724C274.899 49.0724 274.608 49.1417 274.353 49.2802C274.1 49.4156 273.9 49.6049 273.752 49.848C273.605 50.0881 273.531 50.362 273.531 50.6697V55H272.151ZM280.869 47.9091V49.017H276.996V47.9091H280.869ZM278.034 46.2102H279.415V52.918C279.415 53.1857 279.455 53.3873 279.535 53.5227C279.615 53.6551 279.718 53.7459 279.844 53.7951C279.973 53.8413 280.113 53.8643 280.264 53.8643C280.375 53.8643 280.472 53.8567 280.555 53.8413C280.638 53.8259 280.703 53.8136 280.749 53.8043L280.998 54.9446C280.918 54.9754 280.804 55.0062 280.656 55.0369C280.509 55.0708 280.324 55.0893 280.102 55.0923C279.739 55.0985 279.401 55.0339 279.087 54.8984C278.773 54.763 278.519 54.5537 278.325 54.2706C278.131 53.9875 278.034 53.632 278.034 53.2042V46.2102ZM282.396 55V47.9091H283.776V55H282.396ZM283.093 46.815C282.853 46.815 282.647 46.735 282.474 46.5749C282.305 46.4118 282.22 46.2179 282.22 45.9933C282.22 45.7655 282.305 45.5716 282.474 45.4116C282.647 45.2485 282.853 45.1669 283.093 45.1669C283.333 45.1669 283.537 45.2485 283.707 45.4116C283.879 45.5716 283.965 45.7655 283.965 45.9933C283.965 46.2179 283.879 46.4118 283.707 46.5749C283.537 46.735 283.333 46.815 283.093 46.815ZM288.62 55.1431C287.934 55.1431 287.343 54.9877 286.847 54.6768C286.355 54.3629 285.976 53.9305 285.711 53.3796C285.447 52.8287 285.314 52.1978 285.314 51.4869C285.314 50.7667 285.45 50.1312 285.721 49.5803C285.992 49.0263 286.373 48.5939 286.866 48.283C287.358 47.9722 287.938 47.8168 288.606 47.8168C289.145 47.8168 289.625 47.9168 290.046 48.1168C290.468 48.3138 290.808 48.5908 291.067 48.9478C291.328 49.3048 291.484 49.7218 291.533 50.1989H290.189C290.116 49.8665 289.946 49.5803 289.682 49.3402C289.42 49.1001 289.069 48.9801 288.629 48.9801C288.244 48.9801 287.907 49.0817 287.618 49.2848C287.332 49.4848 287.109 49.7711 286.949 50.1435C286.789 50.5128 286.709 50.9498 286.709 51.4545C286.709 51.9716 286.787 52.4179 286.944 52.7933C287.101 53.1688 287.323 53.4596 287.609 53.6658C287.898 53.872 288.238 53.9751 288.629 53.9751C288.891 53.9751 289.128 53.9274 289.34 53.832C289.555 53.7335 289.735 53.5935 289.88 53.4119C290.028 53.2304 290.131 53.0118 290.189 52.7564H291.533C291.484 53.215 291.334 53.6243 291.085 53.9844C290.836 54.3445 290.502 54.6276 290.083 54.8338C289.668 55.04 289.18 55.1431 288.62 55.1431ZM293.009 55V47.9091H294.389V55H293.009ZM293.706 46.815C293.466 46.815 293.26 46.735 293.087 46.5749C292.918 46.4118 292.834 46.2179 292.834 45.9933C292.834 45.7655 292.918 45.5716 293.087 45.4116C293.26 45.2485 293.466 45.1669 293.706 45.1669C293.946 45.1669 294.151 45.2485 294.32 45.4116C294.492 45.5716 294.579 45.7655 294.579 45.9933C294.579 46.2179 294.492 46.4118 294.32 46.5749C294.151 46.735 293.946 46.815 293.706 46.815ZM296.246 57.6591V47.9091H297.594V49.0586H297.71C297.79 48.9109 297.905 48.7401 298.056 48.5462C298.207 48.3523 298.416 48.183 298.684 48.0384C298.952 47.8906 299.305 47.8168 299.746 47.8168C300.318 47.8168 300.829 47.9614 301.278 48.2507C301.728 48.54 302.08 48.957 302.335 49.5018C302.594 50.0465 302.723 50.7021 302.723 51.4684C302.723 52.2347 302.595 52.8918 302.34 53.4396C302.085 53.9844 301.734 54.4045 301.287 54.6999C300.841 54.9923 300.332 55.1385 299.759 55.1385C299.329 55.1385 298.976 55.0662 298.702 54.9215C298.431 54.7769 298.219 54.6076 298.065 54.4137C297.911 54.2198 297.793 54.0475 297.71 53.8967H297.627V57.6591H296.246ZM297.599 51.4545C297.599 51.9531 297.671 52.3902 297.816 52.7656C297.961 53.1411 298.17 53.435 298.444 53.6474C298.718 53.8567 299.053 53.9613 299.45 53.9613C299.863 53.9613 300.207 53.852 300.484 53.6335C300.761 53.4119 300.97 53.1119 301.112 52.7333C301.257 52.3548 301.329 51.9285 301.329 51.4545C301.329 50.9867 301.258 50.5666 301.117 50.1942C300.978 49.8219 300.769 49.5279 300.489 49.3125C300.212 49.0971 299.866 48.9893 299.45 48.9893C299.05 48.9893 298.711 49.0924 298.434 49.2987C298.161 49.5049 297.953 49.7926 297.811 50.1619C297.67 50.5312 297.599 50.9621 297.599 51.4545ZM306.333 55.157C305.884 55.157 305.478 55.0739 305.115 54.9077C304.751 54.7384 304.464 54.4937 304.251 54.1737C304.042 53.8536 303.937 53.4612 303.937 52.9964C303.937 52.5964 304.014 52.267 304.168 52.0085C304.322 51.75 304.53 51.5453 304.791 51.3945C305.053 51.2437 305.345 51.1299 305.669 51.0529C305.992 50.976 306.321 50.9175 306.656 50.8775C307.081 50.8282 307.426 50.7882 307.691 50.7575C307.955 50.7236 308.148 50.6697 308.268 50.5959C308.388 50.522 308.448 50.402 308.448 50.2358V50.2035C308.448 49.8003 308.334 49.4879 308.106 49.2663C307.881 49.0447 307.546 48.9339 307.1 48.9339C306.635 48.9339 306.269 49.037 306.001 49.2433C305.736 49.4464 305.553 49.6726 305.452 49.9219L304.154 49.6264C304.308 49.1955 304.533 48.8478 304.828 48.5831C305.127 48.3153 305.47 48.1214 305.858 48.0014C306.246 47.8783 306.653 47.8168 307.081 47.8168C307.364 47.8168 307.664 47.8506 307.981 47.9183C308.301 47.983 308.6 48.103 308.877 48.2784C309.157 48.4538 309.386 48.7047 309.565 49.0309C309.743 49.354 309.833 49.7741 309.833 50.2912V55H308.485V54.0305H308.429C308.34 54.209 308.206 54.3845 308.028 54.5568C307.849 54.7292 307.62 54.8723 307.34 54.9862C307.06 55.1 306.724 55.157 306.333 55.157ZM306.633 54.049C307.015 54.049 307.341 53.9736 307.612 53.8228C307.886 53.672 308.094 53.475 308.235 53.2319C308.38 52.9857 308.452 52.7225 308.452 52.4425V51.5284C308.403 51.5777 308.308 51.6238 308.166 51.6669C308.028 51.7069 307.869 51.7423 307.691 51.7731C307.512 51.8008 307.338 51.8269 307.169 51.8516C307 51.8731 306.858 51.8916 306.744 51.907C306.476 51.9408 306.232 51.9978 306.01 52.0778C305.792 52.1578 305.616 52.2732 305.484 52.424C305.355 52.5717 305.29 52.7687 305.29 53.0149C305.29 53.3565 305.416 53.6151 305.669 53.7905C305.921 53.9628 306.242 54.049 306.633 54.049ZM313.051 50.7898V55H311.671V47.9091H312.996V49.0632H313.084C313.247 48.6877 313.502 48.3861 313.85 48.1584C314.201 47.9306 314.643 47.8168 315.175 47.8168C315.658 47.8168 316.081 47.9183 316.445 48.1214C316.808 48.3215 317.089 48.62 317.289 49.017C317.489 49.4141 317.589 49.9049 317.589 50.4897V55H316.209V50.6559C316.209 50.1419 316.075 49.7403 315.807 49.451C315.54 49.1586 315.172 49.0124 314.704 49.0124C314.384 49.0124 314.099 49.0817 313.85 49.2202C313.604 49.3587 313.408 49.5618 313.264 49.8295C313.122 50.0942 313.051 50.4143 313.051 50.7898ZM322.751 47.9091V49.017H318.877V47.9091H322.751ZM319.916 46.2102H321.296V52.918C321.296 53.1857 321.336 53.3873 321.416 53.5227C321.496 53.6551 321.6 53.7459 321.726 53.7951C321.855 53.8413 321.995 53.8643 322.146 53.8643C322.257 53.8643 322.354 53.8567 322.437 53.8413C322.52 53.8259 322.584 53.8136 322.631 53.8043L322.88 54.9446C322.8 54.9754 322.686 55.0062 322.538 55.0369C322.391 55.0708 322.206 55.0893 321.984 55.0923C321.621 55.0985 321.283 55.0339 320.969 54.8984C320.655 54.763 320.401 54.5537 320.207 54.2706C320.013 53.9875 319.916 53.632 319.916 53.2042V46.2102ZM329.477 49.6403L328.226 49.8619C328.173 49.7018 328.09 49.5495 327.976 49.4048C327.866 49.2602 327.715 49.1417 327.524 49.0494C327.333 48.957 327.095 48.9109 326.809 48.9109C326.418 48.9109 326.091 48.9986 325.83 49.174C325.568 49.3464 325.437 49.5695 325.437 49.8434C325.437 50.0804 325.525 50.2712 325.701 50.4158C325.876 50.5605 326.159 50.679 326.55 50.7713L327.676 51.0298C328.329 51.1806 328.815 51.413 329.135 51.7269C329.455 52.0408 329.615 52.4486 329.615 52.9503C329.615 53.375 329.492 53.7536 329.246 54.0859C329.003 54.4152 328.663 54.6738 328.226 54.8615C327.792 55.0492 327.289 55.1431 326.716 55.1431C325.922 55.1431 325.274 54.9738 324.773 54.6353C324.271 54.2937 323.963 53.8089 323.849 53.1811L325.184 52.978C325.267 53.3258 325.437 53.5889 325.696 53.7674C325.954 53.9428 326.291 54.0305 326.707 54.0305C327.159 54.0305 327.521 53.9367 327.792 53.7489C328.063 53.5581 328.198 53.3258 328.198 53.0518C328.198 52.8303 328.115 52.6441 327.949 52.4933C327.786 52.3424 327.535 52.2286 327.196 52.1516L325.996 51.8885C325.334 51.7377 324.845 51.4976 324.528 51.1683C324.214 50.839 324.057 50.422 324.057 49.9173C324.057 49.4987 324.174 49.1325 324.408 48.8185C324.642 48.5046 324.965 48.2599 325.377 48.0845C325.79 47.906 326.262 47.8168 326.795 47.8168C327.561 47.8168 328.164 47.983 328.604 48.3153C329.044 48.6446 329.335 49.0863 329.477 49.6403Z" fill="#1468E5" fill-opacity="0.5"/>
<rect x="283.154" y="15" width="156" height="2" fill="#1468E5"/>
<g clip-path="url(#clip2_74_3110)">
<circle cx="463.154" cy="16" r="16" fill="#F4FFFD"/>
<circle cx="463.154" cy="16" r="15" stroke="#1468E5" stroke-opacity="0.5" stroke-width="2"/>
<path d="M463.166 20.6293C462.532 20.6293 461.966 20.52 461.467 20.3015C460.971 20.083 460.579 19.7798 460.29 19.392C460.004 19.0012 459.85 18.5488 459.828 18.0348H461.278C461.296 18.3149 461.39 18.558 461.559 18.7642C461.732 18.9673 461.956 19.1243 462.233 19.2351C462.51 19.3459 462.818 19.4013 463.157 19.4013C463.529 19.4013 463.858 19.3366 464.145 19.2074C464.434 19.0781 464.66 18.8981 464.823 18.6673C464.986 18.4334 465.068 18.1641 465.068 17.8594C465.068 17.5424 464.986 17.2638 464.823 17.0238C464.663 16.7807 464.428 16.5898 464.117 16.4513C463.809 16.3129 463.437 16.2436 463 16.2436H462.201V15.0803H463C463.35 15.0803 463.658 15.0172 463.923 14.891C464.191 14.7648 464.4 14.5894 464.551 14.3647C464.702 14.137 464.777 13.8707 464.777 13.5661C464.777 13.2737 464.711 13.0198 464.578 12.8043C464.449 12.5858 464.265 12.415 464.025 12.2919C463.788 12.1688 463.507 12.1072 463.184 12.1072C462.877 12.1072 462.589 12.1642 462.321 12.2781C462.056 12.3888 461.841 12.5489 461.675 12.7582C461.509 12.9644 461.419 13.2121 461.407 13.5014H460.027C460.042 12.9905 460.193 12.5412 460.479 12.1534C460.768 11.7656 461.15 11.4625 461.624 11.244C462.098 11.0254 462.624 10.9162 463.203 10.9162C463.809 10.9162 464.332 11.0347 464.772 11.2717C465.216 11.5056 465.557 11.8179 465.797 12.2088C466.04 12.5997 466.16 13.0275 466.157 13.4922C466.16 14.0215 466.013 14.4709 465.714 14.8402C465.419 15.2095 465.025 15.4573 464.532 15.5835V15.6573C465.16 15.7527 465.646 16.002 465.991 16.4052C466.339 16.8084 466.511 17.3085 466.508 17.9055C466.511 18.4257 466.367 18.8919 466.074 19.3043C465.785 19.7167 465.389 20.0414 464.888 20.2784C464.386 20.5123 463.812 20.6293 463.166 20.6293Z" fill="#1468E5" fill-opacity="0.5"/>
</g>
<path d="M445.467 45.5455H446.889V52.2486C446.889 52.8549 446.769 53.3735 446.529 53.8043C446.292 54.2352 445.958 54.5645 445.527 54.7923C445.096 55.0169 444.591 55.1293 444.013 55.1293C443.48 55.1293 443.002 55.0323 442.577 54.8384C442.155 54.6445 441.821 54.3629 441.575 53.9936C441.332 53.6212 441.21 53.1688 441.21 52.6364H442.628C442.628 52.898 442.688 53.1242 442.808 53.315C442.931 53.5058 443.099 53.6551 443.311 53.7628C443.526 53.8674 443.773 53.9197 444.05 53.9197C444.351 53.9197 444.607 53.8567 444.816 53.7305C445.028 53.6012 445.19 53.4119 445.301 53.1626C445.411 52.9134 445.467 52.6087 445.467 52.2486V45.5455ZM451.841 55.1431C451.176 55.1431 450.596 54.9908 450.101 54.6861C449.605 54.3814 449.22 53.9551 448.947 53.4073C448.673 52.8595 448.536 52.2193 448.536 51.4869C448.536 50.7513 448.673 50.1081 448.947 49.5572C449.22 49.0063 449.605 48.5785 450.101 48.2738C450.596 47.9691 451.176 47.8168 451.841 47.8168C452.506 47.8168 453.086 47.9691 453.581 48.2738C454.077 48.5785 454.462 49.0063 454.736 49.5572C455.009 50.1081 455.146 50.7513 455.146 51.4869C455.146 52.2193 455.009 52.8595 454.736 53.4073C454.462 53.9551 454.077 54.3814 453.581 54.6861C453.086 54.9908 452.506 55.1431 451.841 55.1431ZM451.846 53.9844C452.277 53.9844 452.634 53.8705 452.917 53.6428C453.2 53.415 453.409 53.1119 453.545 52.7333C453.683 52.3548 453.752 51.9377 453.752 51.4822C453.752 51.0298 453.683 50.6143 453.545 50.2358C453.409 49.8542 453.2 49.5479 452.917 49.3171C452.634 49.0863 452.277 48.9709 451.846 48.9709C451.412 48.9709 451.052 49.0863 450.765 49.3171C450.482 49.5479 450.271 49.8542 450.133 50.2358C449.998 50.6143 449.93 51.0298 449.93 51.4822C449.93 51.9377 449.998 52.3548 450.133 52.7333C450.271 53.1119 450.482 53.415 450.765 53.6428C451.052 53.8705 451.412 53.9844 451.846 53.9844ZM461.179 52.0593V47.9091H462.564V55H461.207V53.772H461.133C460.97 54.1506 460.708 54.466 460.348 54.7184C459.991 54.9677 459.546 55.0923 459.014 55.0923C458.558 55.0923 458.155 54.9923 457.804 54.7923C457.457 54.5891 457.183 54.2891 456.983 53.892C456.786 53.495 456.687 53.0041 456.687 52.4194V47.9091H458.068V52.2532C458.068 52.7364 458.201 53.1211 458.469 53.4073C458.737 53.6935 459.085 53.8366 459.512 53.8366C459.771 53.8366 460.028 53.772 460.283 53.6428C460.542 53.5135 460.756 53.3181 460.925 53.0565C461.097 52.7949 461.182 52.4625 461.179 52.0593ZM467.475 55.1431C466.776 55.1431 466.174 54.9938 465.67 54.6953C465.168 54.3937 464.78 53.9705 464.506 53.4258C464.236 52.878 464.1 52.2363 464.1 51.5007C464.1 50.7744 464.236 50.1342 464.506 49.5803C464.78 49.0263 465.162 48.5939 465.651 48.283C466.144 47.9722 466.719 47.8168 467.378 47.8168C467.778 47.8168 468.166 47.8829 468.541 48.0153C468.917 48.1476 469.254 48.3554 469.552 48.6385C469.851 48.9216 470.086 49.2894 470.258 49.7418C470.431 50.1912 470.517 50.7375 470.517 51.3807V51.87H464.88V50.8359H469.164C469.164 50.4728 469.091 50.1512 468.943 49.8711C468.795 49.5879 468.587 49.3648 468.32 49.2017C468.055 49.0386 467.744 48.957 467.387 48.957C466.999 48.957 466.661 49.0524 466.371 49.2433C466.085 49.431 465.864 49.6772 465.707 49.9819C465.553 50.2835 465.476 50.6113 465.476 50.9652V51.7731C465.476 52.247 465.559 52.6502 465.725 52.9826C465.894 53.315 466.13 53.5689 466.431 53.7443C466.733 53.9167 467.085 54.0028 467.489 54.0028C467.75 54.0028 467.989 53.9659 468.204 53.892C468.42 53.8151 468.606 53.7012 468.763 53.5504C468.92 53.3996 469.04 53.2134 469.123 52.9918L470.429 53.2273C470.325 53.612 470.137 53.949 469.866 54.2383C469.598 54.5245 469.261 54.7476 468.855 54.9077C468.452 55.0646 467.992 55.1431 467.475 55.1431ZM471.901 55V54.0536L475.742 49.174V49.1094H472.025V47.9091H477.464V48.9155L473.77 53.7351V53.7997H477.593V55H471.901ZM484.402 45.5455L484.282 52.2809H483.003L482.883 45.5455H484.402ZM483.645 55.0877C483.39 55.0877 483.171 54.9985 482.99 54.82C482.808 54.6384 482.719 54.4199 482.722 54.1644C482.719 53.9121 482.808 53.6966 482.99 53.5181C483.171 53.3365 483.39 53.2457 483.645 53.2457C483.894 53.2457 484.11 53.3365 484.291 53.5181C484.473 53.6966 484.565 53.9121 484.568 54.1644C484.565 54.3337 484.521 54.4891 484.435 54.6307C484.351 54.7692 484.241 54.88 484.102 54.9631C483.964 55.0462 483.811 55.0877 483.645 55.0877Z" fill="#1468E5" fill-opacity="0.5"/>
<defs>
<clipPath id="clip0_74_3110">
<rect width="32" height="32" fill="white" transform="translate(39.1543)"/>
</clipPath>
<clipPath id="clip1_74_3110">
<rect width="32" height="32" fill="white" transform="translate(243.154)"/>
</clipPath>
<clipPath id="clip2_74_3110">
<rect width="32" height="32" fill="white" transform="translate(447.154)"/>
</clipPath>
</defs>
</svg>
