<?xml version="1.0" encoding="UTF-8"?>
<svg id="Calque_2" data-name="Calque 2" xmlns="http://www.w3.org/2000/svg" viewBox="0 0 516.19 134.88">
  <defs>
    <style>
      .cls-1 {
        fill: #f5fafb;
      }
    </style>
  </defs>
  <g>
    <path class="cls-1" d="M157.41,115.04l-7.28-77.61c-.08-.48-.12-.93-.12-1.33.16-1.29.77-2.34,1.82-3.15,1.05-.81,2.22-1.13,3.52-.97l44.14,5.21c1.29.16,2.34.75,3.15,1.76.81,1.01,1.17,2.16,1.09,3.46,0,.08-.04.16-.12.24l-2.3,21.22c-.08,1.05-.49,1.96-1.21,2.73-.73.77-1.62,1.23-2.67,1.39l-5.34,1.33,6.55.48c1.13.08,2.1.51,2.91,1.27.81.77,1.29,1.68,1.46,2.73l5.46,28.38c.24,1.21.04,2.35-.61,3.4-.65,1.05-1.58,1.74-2.79,2.06l-33.35,9.46-8.25,2.3c-1.29.32-2.51.16-3.64-.49-1.13-.65-1.86-1.58-2.18-2.79-.08-.4-.16-.77-.24-1.09ZM166.5,65.81l25.83-6.31,1.46-13.46-31.53-3.76c.89,5.01,2.3,12.86,4.24,23.53ZM168.56,76.96c.81,4.29,2.22,11.76,4.24,22.44l20.86-3.15-.97-17.46-24.13-1.82Z"/>
    <path class="cls-1" d="M214.16,115.77l-3.03-58.45c-.08-2.26.89-3.8,2.91-4.61l42.69-20.5c1.13-.56,2.32-.63,3.58-.18,1.25.45,2.16,1.23,2.73,2.37.24.65.4,1.29.48,1.94l.97,57.73v1.33c0,2.1-.93,3.56-2.79,4.37l-40.75,20.01c-1.21.57-2.43.65-3.64.24-1.21-.4-2.1-1.21-2.67-2.43-.32-.56-.49-1.17-.49-1.82ZM250.67,49.92l-29.59,10.31,5.09,41.48,28.5-10.43-4-41.35Z"/>
    <path class="cls-1" d="M280.62,43.49c.32-2.1,1.46-3.44,3.4-4l23.77-7.15c1.29-.4,2.51-.28,3.64.36,1.13.65,1.9,1.58,2.3,2.79.08.24.12.48.12.73l7.76,35.05c.08.16.14.34.18.55.04.2.1.38.18.55l6.67,30.2,27.04-1.45c.81-.08,1.58.04,2.3.36.73.32,1.33.79,1.82,1.39s.81,1.32.97,2.12l1.21,7.52c.08.24.12.49.12.73,0,.81-.2,1.58-.61,2.3-.41.73-.97,1.31-1.7,1.76-.73.45-1.54.67-2.43.67l-38.93.36c-1.29.08-2.43-.28-3.4-1.09-.97-.81-1.54-1.82-1.7-3.03l-3.27-27.89-23.28-.97-2.06,26.32c-.16,1.29-.73,2.37-1.7,3.21s-2.1,1.23-3.4,1.15h-6.67c-1.29,0-2.41-.46-3.34-1.4-.93-.93-1.4-2.04-1.4-3.34,0-.24.04-.52.12-.85l12.25-66.94ZM287.65,74.42l20.62-4.49-3.15-26.92-15.28,4.61-2.18,26.8ZM377.03,80.12l-7.76-.48,14.92,28.98c.56,1.13.65,2.32.24,3.58-.41,1.25-1.17,2.16-2.3,2.73-.16.16-.36.28-.61.36l-6.19,2.18c-1.21.41-2.41.32-3.58-.24-1.17-.56-2-1.46-2.49-2.67,0-.08-.04-.2-.12-.36l-11.28-35.17-10.67-.61,1.7,12.13c.08.16.12.32.12.48.08,1.29-.3,2.45-1.15,3.46-.85,1.01-1.92,1.56-3.21,1.64l-7.28.48h-.12c-.57,0-1.09-.06-1.58-.18-.48-.12-.91-.32-1.27-.61-.36-.28-.71-.61-1.03-.97-.32-.36-.57-.79-.73-1.27-.16-.48-.24-.97-.24-1.45l-1.82-54.69c-.08-.65,0-1.25.24-1.82.4-1.29,1.19-2.22,2.37-2.79,1.17-.56,2.41-.61,3.7-.12l42.45,14.67v.12c.97.32,1.76.89,2.37,1.7.61.81.87,1.74.79,2.79l-.49,23.28v.36c0,.89-.24,1.68-.73,2.36-.49.69-1.09,1.23-1.82,1.64-.73.41-1.54.57-2.43.48ZM342.59,45.67l3.27,23.16,26.8,1.58.36-15.04-30.44-9.7Z"/>
    <path class="cls-1" d="M387.82,36.94c0-.49.04-.97.12-1.46.32-1.29,1.05-2.28,2.18-2.97,1.13-.69,2.3-.87,3.52-.55l44.99,11.04c1.13.32,2.04.95,2.73,1.88.69.93.95,1.96.79,3.09l-2.43,54.21c-.08,2.18-1.13,3.6-3.15,4.24l-30.2,10.67-6.06,2.18c-.41.16-.89.24-1.46.24-1.29.16-2.43-.2-3.4-1.09-.97-.89-1.5-1.98-1.58-3.27l-.12-.85-.36-3.52v-.73l-5.58-73.13ZM398.37,42.89l9.22,57.36,23.28-12.01,1.7-36.99-34.2-8.37Z"/>
    <path class="cls-1" d="M480.29,81.53c-.08.08-.17.2-.25.36l-20.65,34.82c-.66,1.12-1.6,1.86-2.81,2.21-1.22.35-2.39.2-3.51-.46l-5.06-2.85c-1.13-.58-1.86-1.5-2.21-2.75-.35-1.26-.2-2.45.46-3.57.08-.24.21-.48.37-.72l23.62-29.57-22.96-29.24c-.8-1.06-1.11-2.23-.93-3.53.18-1.29.79-2.33,1.85-3.13.08-.08.16-.16.25-.24l3.54-2.39c1.06-.72,2.23-.95,3.52-.69,1.29.26,2.29.96,3.01,2.1.08.08.16.2.24.37l17.15,27.6,11.76-21.09c.66-1.12,1.62-1.88,2.88-2.27,1.26-.39,2.45-.25,3.57.4.16.16.36.29.6.37l3.12,2.58c1.04.74,1.66,1.76,1.85,3.05.19,1.3-.13,2.47-.95,3.51l-.12.12-18.35,25.02Z"/>
  </g>
  <path class="cls-1" d="M74.01,51.58c-.03-.68-.36-1.15-.36-1.15-.43-.61-1.07-.8-1.24-.85-4.58-1.3-48.67-13.8-51.91-14.25-.39-.05-1.44-.2-2.19.37-.75.59-.82,1.64-.84,2.09-.09,2.16-.66,27.13-1.38,61.35-.02.49,0,1.61.66,2.82.72,1.3,1.78,1.94,2.22,2.18,16.8,9.14,33.6,18.3,50.39,27.45.21.06,1.79.55,3.3-.38,1.32-.83,1.63-2.15,1.67-2.4-.14-43.91-.26-76.12-.31-77.23ZM29.13,89.64c-1.77-15.09-3.53-30.18-5.3-45.27,12.94,3.63,25.87,7.27,38.82,10.91.31,18.81.63,37.63.94,56.45-11.48-7.37-22.97-14.73-34.45-22.1Z"/>
  <path class="cls-1" d="M138.2,35.26c-.03-1.21-.7-2.32-1.74-2.9-1.65-.91-3.25.04-3.32.09-2.68.82-53.88,16.64-55.81,17.51-.95.44-1.32,1.16-1.32,1.16-.25.48-.28.99-.26,1.38l.24,70.52c-.02.24-.04.47-.06.7l.12,3.4.06.82c-.02,1.25.48,2.34,1.49,3.29,1.01.95,2.24,1.41,3.69,1.38.63.05,1.18.03,1.64-.1l6.92-1.49c14.72-3.42,29.44-6.84,44.16-10.26.16-.03,1.92-.31,2.68-1.92.47-.99.31-1.92.24-2.26l1.26-81.34ZM119.47,105.83l-26.89,9.2-5.57-55.79c13.02.36,26.03.73,39.04,1.09-2.19,15.17-4.39,30.33-6.58,45.5Z"/>
  <path class="cls-1" d="M126.33,30.19c-.31-.21-.63-.41-.94-.61-16.75-4.7-33.51-9.38-50.26-14.07-20.47,5.25-54.48,14.04-55.53,14.74-.56.38-.57.73-.57.75,0,.28.28.52.59.69,28.26,7.98,48.55,13.71,50.8,14.51.43.15,2.1.8,4.16.47.81-.13,1.4-.36,1.53-.41,1.58-.6,14.53-4.14,49.22-13.24.25-.09.74-.31,1.12-.8.16-.21.44-.58.39-1.07-.04-.45-.33-.75-.52-.95ZM73.45,39.8c-9.25-3.13-18.5-6.25-27.75-9.38,9.25-3.21,18.48-6.42,27.72-9.62,12.5,3.49,24.99,6.98,37.49,10.47-12.49,2.84-24.97,5.69-37.45,8.54Z"/>
  <path class="cls-1" d="M37.07,52.67c-.83-.83-2.82-1.49-4.18-1.85-1.03-.24-2.1-.55-3.07-.24-1.37.68-1.06,2.64-1.19,5.14-.02,2.41.21,5.01,1.85,6.82,1.6,1.68,5.33,4.38,6.81,2.55.48-.67.64-1.98.67-3.56.02-1.69,0-3.64,0-5.15-.02-1.77-.08-2.89-.82-3.64l-.07-.07Z"/>
  <path class="cls-1" d="M40.97,80.65c1.64,1.37,5,2.7,7.3,2.48,1.51-.52,1.28-2.56,1.51-5.12.12-2.43-.03-5.07-1.64-6.94-1.64-1.79-4.81-4.26-6.65-3.16-.97.8-1.05,3-1.14,4.72.11,2.52-.82,6.19.55,7.95l.07.07Z"/>
  <path class="cls-1" d="M59.1,97.48c1.37-1.76.44-5.43.55-7.95-.09-1.72-.16-3.91-1.14-4.72-1.84-1.11-5.01,1.37-6.65,3.16-1.61,1.87-1.76,4.51-1.64,6.94.24,2.57,0,4.61,1.51,5.12,2.3.22,5.66-1.11,7.3-2.48l.07-.07Z"/>
  <path class="cls-1" d="M105.8,89.72c-1.54-1.39-7.89,1.13-8.68,3.03-.7,1.31-.71,2.9-.75,4.38.03,2.82-.21,5.67.69,7.46,1.27,2.37,6.94.88,8.39-1.15,1.14-1.74,1.03-3.96,1.11-6.09-.03-2.14.34-6.37-.69-7.56l-.07-.07Z"/>
  <path class="cls-1" d="M108.6,83.24c1.54,1.39,7.89-1.13,8.68-3.03.7-1.31.71-2.9.75-4.38-.03-2.82.21-5.67-.69-7.46-1.27-2.37-6.94-.88-8.39,1.15-1.14,1.74-1.03,3.96-1.11,6.09.03,2.14-.34,6.37.69,7.56l.07.07Z"/>
  <path class="cls-1" d="M84.13,30.13c-.57-.79-2.03-1.04-2.98-1.37-2.43-.7-4.8-1.49-7.64-1.18-2.72.28-5.76,1.22-8.3,1.93-.74.24-1.14.46-1.12.67.08.26.33.34.63.49,1.45.6,3.41,1.09,5,1.57,2.79.81,4.63,1.59,7.39.61,1.92-.59,4.98-1.19,6.56-1.99.3-.18.55-.36.48-.68l-.02-.06Z"/>
</svg>