<svg width="590" height="409" viewBox="0 0 590 409" fill="none" xmlns="http://www.w3.org/2000/svg">
<path d="M51.3553 381.311L123.001 364.346L136.494 381.311L199.463 367.022L276.98 375.323L399.388 381.325L456.745 366.371L496.169 381.325L569.377 272.266L553.917 246.769L514.753 255.258L487.449 229.096L470.658 242.459L387.471 229.096L378.823 251.483L303.46 222.819L231.106 240.912L213.65 222.819L161.832 242.459L29.1703 228.879C36.5605 279.699 43.9362 330.505 51.3264 381.325L51.3553 381.311Z" fill="#F7001F"/>
<path d="M56.6773 363.088L46.1488 250.847C46.0331 250.153 45.9753 249.502 45.9753 248.923C46.2067 247.058 47.0889 245.539 48.6074 244.368C50.1259 243.196 51.818 242.734 53.6981 242.965L117.534 250.5C119.4 250.731 120.918 251.584 122.09 253.045C123.261 254.506 123.782 256.169 123.666 258.049C123.666 258.165 123.608 258.28 123.493 258.396L120.166 289.085C120.051 290.604 119.458 291.92 118.416 293.033C117.361 294.147 116.074 294.812 114.555 295.043L106.832 296.967L116.305 297.661C117.939 297.777 119.342 298.399 120.513 299.498C121.685 300.611 122.379 301.927 122.625 303.446L130.521 344.49C130.868 346.24 130.579 347.888 129.639 349.407C128.699 350.925 127.354 351.923 125.604 352.386L77.3727 366.067L65.4414 369.394C63.5758 369.856 61.8114 369.625 60.1772 368.685C58.5429 367.745 57.4872 366.4 57.0244 364.65C56.9087 364.071 56.793 363.536 56.6773 363.074V363.088ZM69.8379 291.876L107.194 282.751L109.305 263.284L63.7059 257.847C64.9931 265.092 67.0322 276.445 69.8379 291.876ZM72.8171 308.016C73.9886 314.22 76.0277 325.024 78.9491 340.469L109.117 335.914L107.714 310.663L72.8171 308.03V308.016Z" fill="#F5FAFB"/>
<path d="M138.75 364.144L134.368 279.612C134.253 276.344 135.655 274.117 138.577 272.945L200.316 243.298C201.95 242.488 203.671 242.387 205.493 243.037C207.301 243.688 208.617 244.816 209.442 246.465C209.789 247.405 210.02 248.33 210.136 249.271L211.539 332.761V334.684C211.539 337.721 210.194 339.833 207.504 341.004L148.57 369.943C146.82 370.767 145.056 370.883 143.306 370.29C141.556 369.712 140.269 368.54 139.445 366.776C138.982 365.966 138.736 365.084 138.736 364.144H138.75ZM191.552 268.896L148.758 283.806L156.119 343.795L197.337 328.711L191.552 268.91V268.896Z" fill="#F5FAFB"/>
<path d="M234.866 259.611C235.329 256.574 236.978 254.636 239.783 253.826L274.16 243.486C276.026 242.907 277.79 243.081 279.424 244.006C281.058 244.946 282.172 246.291 282.751 248.041C282.866 248.388 282.924 248.735 282.924 249.097L294.147 299.787C294.262 300.018 294.349 300.279 294.407 300.582C294.465 300.872 294.552 301.132 294.667 301.378L304.314 345.054L343.419 342.957C344.591 342.841 345.704 343.014 346.746 343.477C347.801 343.94 348.669 344.62 349.378 345.488C350.087 346.355 350.549 347.397 350.781 348.553L352.531 359.429C352.646 359.776 352.704 360.138 352.704 360.485C352.704 361.656 352.415 362.77 351.822 363.811C351.229 364.867 350.419 365.706 349.363 366.356C348.308 367.007 347.136 367.325 345.849 367.325L289.548 367.846C287.682 367.962 286.033 367.441 284.631 366.27C283.228 365.098 282.403 363.638 282.172 361.888L277.443 321.553L243.775 320.15L240.796 358.214C240.564 360.08 239.74 361.642 238.337 362.857C236.934 364.071 235.3 364.635 233.42 364.52H223.774C221.908 364.52 220.288 363.854 218.943 362.495C217.598 361.15 216.919 359.545 216.919 357.665C216.919 357.318 216.976 356.913 217.092 356.435L234.808 259.625L234.866 259.611ZM245.048 304.328L274.869 297.835L270.313 258.902L248.215 265.569L245.062 304.328H245.048ZM374.296 312.572L363.074 311.877L384.651 353.789C385.461 355.423 385.591 357.144 384.998 358.966C384.405 360.774 383.306 362.09 381.672 362.914C381.441 363.146 381.151 363.319 380.79 363.435L371.838 366.588C370.088 367.181 368.352 367.051 366.66 366.241C364.968 365.431 363.768 364.129 363.059 362.379C363.059 362.264 363.001 362.09 362.886 361.859L346.572 310.995L331.141 310.113L333.6 327.656C333.715 327.887 333.773 328.118 333.773 328.35C333.889 330.215 333.339 331.893 332.11 333.354C330.881 334.814 329.333 335.61 327.468 335.726L316.939 336.42H316.766C315.941 336.42 315.189 336.333 314.481 336.159C313.786 335.986 313.165 335.697 312.644 335.277C312.123 334.872 311.617 334.395 311.154 333.874C310.691 333.354 310.33 332.732 310.099 332.038C309.867 331.343 309.751 330.635 309.751 329.941L307.119 250.847C307.004 249.907 307.119 249.039 307.466 248.215C308.045 246.349 309.187 245.004 310.894 244.18C312.586 243.37 314.379 243.298 316.245 244.006L377.637 265.222V265.396C379.04 265.859 380.182 266.683 381.065 267.854C381.947 269.026 382.323 270.371 382.207 271.889L381.498 305.557V306.078C381.498 307.365 381.151 308.508 380.443 309.491C379.734 310.489 378.866 311.27 377.811 311.863C376.755 312.456 375.583 312.687 374.296 312.557V312.572ZM324.488 262.764L329.218 296.258L367.976 298.543L368.497 276.792L324.474 262.764H324.488Z" fill="#F5FAFB"/>
<path d="M389.915 250.138C389.915 249.43 389.973 248.735 390.089 248.027C390.552 246.161 391.607 244.729 393.242 243.731C394.876 242.734 396.568 242.473 398.332 242.936L463.398 258.902C465.032 259.365 466.348 260.276 467.346 261.621C468.344 262.966 468.72 264.456 468.489 266.09L464.974 344.49C464.859 347.642 463.34 349.696 460.419 350.622L416.743 366.053L407.979 369.206C407.386 369.437 406.692 369.553 405.867 369.553C404.002 369.784 402.353 369.263 400.95 367.976C399.547 366.689 398.781 365.113 398.665 363.247L398.491 362.018L397.971 356.927V355.871L389.901 250.109L389.915 250.138ZM405.173 258.729L418.507 341.684L452.175 324.315L454.634 270.819L405.173 258.714V258.729Z" fill="#F5FAFB"/>
<path d="M523.633 314.625C523.517 314.741 523.387 314.915 523.271 315.146L493.407 365.503C492.452 367.123 491.093 368.193 489.343 368.699C487.579 369.206 485.887 368.989 484.267 368.034L476.949 363.912C475.315 363.074 474.259 361.743 473.753 359.935C473.247 358.113 473.464 356.392 474.418 354.772C474.534 354.425 474.722 354.078 474.953 353.731L509.113 310.966L475.908 268.679C474.751 267.146 474.302 265.454 474.563 263.574C474.823 261.708 475.705 260.204 477.238 259.047C477.354 258.931 477.47 258.816 477.6 258.7L482.719 255.243C484.252 254.202 485.944 253.87 487.81 254.246C489.676 254.622 491.122 255.634 492.163 257.283C492.279 257.398 492.395 257.572 492.51 257.818L517.313 297.733L534.32 267.233C535.275 265.613 536.663 264.514 538.486 263.95C540.308 263.386 542.029 263.588 543.649 264.528C543.88 264.76 544.169 264.948 544.516 265.063L549.029 268.795C550.533 269.865 551.429 271.34 551.704 273.206C551.979 275.086 551.516 276.778 550.33 278.282L550.157 278.455L523.618 314.64L523.633 314.625Z" fill="#F5FAFB"/>
<path d="M277.081 73.2945C277.038 72.1665 276.488 71.4 276.488 71.4C275.78 70.3876 274.724 70.0839 274.435 69.9972C266.857 67.8423 193.967 47.1903 188.602 46.4382C187.951 46.3515 186.215 46.1056 184.986 47.0601C183.742 48.0291 183.627 49.779 183.598 50.5166C183.439 54.0887 182.499 95.3783 181.327 151.954C181.284 152.764 181.327 154.63 182.412 156.611C183.598 158.752 185.348 159.822 186.071 160.212C213.853 175.325 241.62 190.467 269.387 205.595C269.735 205.696 272.352 206.506 274.84 204.958C277.023 203.599 277.53 201.401 277.602 200.996C277.371 128.396 277.168 75.1312 277.081 73.2945ZM202.876 136.234L194.112 61.3777C215.501 67.3795 236.891 73.3958 258.295 79.4265C258.816 110.535 259.336 141.643 259.842 172.766C240.854 160.588 221.865 148.411 202.876 136.234Z" fill="#F7001F"/>
<path d="M383.219 46.3223C383.176 44.3265 382.062 42.4898 380.341 41.5353C377.608 40.0312 374.962 41.6076 374.86 41.6799C370.42 43.0393 285.773 69.187 282.577 70.6332C281.015 71.3563 280.393 72.5567 280.393 72.5567C279.974 73.3521 279.93 74.1909 279.974 74.8417L280.379 191.45C280.35 191.841 280.306 192.231 280.277 192.607L280.48 198.233L280.581 199.593C280.552 201.661 281.377 203.469 283.04 205.03C284.703 206.607 286.742 207.359 289.143 207.316C290.184 207.402 291.095 207.359 291.862 207.156L303.301 204.698C327.641 199.043 351.967 193.388 376.321 187.734C376.596 187.69 379.488 187.213 380.761 184.552C381.542 182.918 381.267 181.37 381.166 180.821L383.263 46.3223H383.219ZM352.241 163.003L307.785 178.218L298.572 85.9632C320.106 86.5561 341.612 87.1635 363.131 87.7709C359.501 112.848 355.886 137.926 352.256 163.003H352.241Z" fill="#F7001F"/>
<path d="M363.594 37.9344C363.074 37.5873 362.553 37.2547 362.047 36.922C334.352 29.1558 306.642 21.4041 278.947 13.6523C245.105 22.3297 188.862 36.8642 187.126 38.0212C186.201 38.643 186.186 39.236 186.186 39.2649C186.186 39.7277 186.649 40.1182 187.155 40.4074C233.883 53.5969 267.435 63.0842 271.152 64.4002C271.86 64.6461 274.623 65.7163 278.036 65.1812C279.381 64.9642 280.35 64.5882 280.567 64.5014C283.184 63.5036 304.588 57.6608 361.96 42.6057C362.365 42.4611 363.189 42.0995 363.811 41.2752C364.071 40.9281 364.534 40.3206 364.462 39.5108C364.404 38.7587 363.912 38.267 363.594 37.9344ZM276.156 53.8283C260.855 48.6509 245.568 43.4879 230.267 38.3104C245.554 33.0028 260.826 27.6951 276.098 22.402C296.764 28.1724 317.416 33.9428 338.083 39.7132C317.431 44.4135 296.793 49.1137 276.156 53.8283Z" fill="#F7001F"/>
<path d="M216.007 75.102C214.634 73.7281 211.351 72.6435 209.094 72.0361C207.402 71.6456 205.624 71.1249 204.018 71.6456C201.748 72.7592 202.268 75.9987 202.051 80.1349C202.022 84.1265 202.398 88.4217 205.117 91.4009C207.764 94.1777 213.925 98.6465 216.383 95.6094C217.164 94.5103 217.439 92.3265 217.497 89.7233C217.54 86.9177 217.497 83.7071 217.497 81.2196C217.468 78.2982 217.367 76.4326 216.138 75.2033L216.022 75.0876L216.007 75.102Z" fill="#F7001F"/>
<path d="M222.443 121.367C225.148 123.637 230.716 125.836 234.505 125.474C237.007 124.621 236.616 121.251 237.007 116.999C237.195 112.979 236.949 108.626 234.288 105.531C231.569 102.58 226.333 98.4731 223.282 100.31C221.677 101.64 221.547 105.256 221.402 108.105C221.575 112.27 220.042 118.33 222.313 121.251L222.429 121.367H222.443Z" fill="#F7001F"/>
<path d="M252.438 149.192C254.708 146.285 253.175 140.211 253.349 136.046C253.204 133.197 253.089 129.582 251.469 128.251C248.417 126.414 243.182 130.522 240.463 133.472C237.802 136.567 237.556 140.92 237.744 144.94C238.135 149.192 237.744 152.562 240.246 153.415C244.05 153.777 249.603 151.579 252.308 149.308L252.423 149.192H252.438Z" fill="#F7001F"/>
<path d="M329.651 136.364C327.106 134.065 316.607 138.23 315.29 141.368C314.133 143.523 314.119 146.17 314.047 148.614C314.105 153.271 313.685 157.985 315.189 160.95C317.301 164.869 326.658 162.411 329.058 159.056C330.953 156.178 330.751 152.504 330.895 148.99C330.852 145.447 331.459 138.461 329.753 136.494L329.637 136.379L329.651 136.364Z" fill="#F7001F"/>
<path d="M334.279 125.648C336.825 127.947 347.324 123.782 348.64 120.644C349.797 118.489 349.812 115.842 349.884 113.398C349.826 108.741 350.246 104.027 348.742 101.062C346.63 97.1425 337.273 99.6011 334.872 102.956C332.978 105.834 333.18 109.508 333.036 113.022C333.079 116.565 332.472 123.551 334.178 125.517L334.294 125.633L334.279 125.648Z" fill="#F7001F"/>
<path d="M293.814 37.8333C292.874 36.5317 290.459 36.1123 288.883 35.5772C284.862 34.4202 280.957 33.1186 276.243 33.6248C271.745 34.0876 266.712 35.6495 262.518 36.821C261.303 37.2259 260.638 37.573 260.652 37.9346C260.782 38.354 261.202 38.4986 261.694 38.7444C264.094 39.7423 267.319 40.5522 269.966 41.3332C274.579 42.6637 277.616 43.9508 282.187 42.3455C285.368 41.3766 290.416 40.3787 293.033 39.0626C293.525 38.7589 293.944 38.4697 293.829 37.9346L293.785 37.8333H293.814Z" fill="#F7001F"/>
</svg>
